<svg width="33" height="16" viewBox="0 0 33 16" fill="none" xmlns="http://www.w3.org/2000/svg">
<path d="M19.0899 14.0081C19.197 14.1176 19.3261 14.1521 19.4735 14.1009V16C19.4735 16 19.4735 15.9962 19.2455 15.9962C17.5866 15.9615 15.9782 15.4324 14.6353 14.4796C15.3429 13.8344 16.1255 12.8217 16.5886 11.8284C16.8833 11.8381 17.2487 11.8338 17.7404 11.7777C17.9927 11.7491 18.1411 11.7464 18.3934 11.7373C18.4955 11.7335 18.6793 11.6741 18.6517 11.4891C18.6351 11.3785 18.5744 11.2263 18.5269 11.1071C18.4712 10.9679 18.655 10.8881 18.7267 10.9976C18.7681 11.0623 18.8586 11.2706 18.889 11.3396C18.9486 11.4729 19.1098 11.631 19.2257 11.7146C19.3261 11.7858 19.4343 11.8419 19.5513 11.8835C19.7864 11.9655 19.9923 12.0993 20.1722 12.2665C20.2285 12.3189 20.2782 12.3787 20.3245 12.4392C20.4868 12.6463 20.5315 12.7489 20.308 12.9976C20.1179 13.218 19.8507 13.3614 19.5585 13.4001C19.3565 13.427 19.2008 13.3628 19.1142 13.1713C19.0975 13.1368 19.079 13.1031 19.059 13.0704C19.0215 13.0046 18.985 12.9371 18.9414 12.874C18.8791 12.7834 18.7924 12.7321 18.6765 12.7499C18.4905 12.7769 18.3056 12.806 18.1207 12.8406C18.0887 12.846 18.012 12.8951 18.0324 12.9118C18.1318 13.079 18.2399 13.2301 18.3652 13.3666C18.3924 13.3982 18.4269 13.4231 18.4659 13.4393C18.5048 13.4554 18.5471 13.4623 18.5893 13.4594C18.7698 13.4524 18.777 13.4594 18.8509 13.6191C18.8862 13.6941 18.9205 13.7702 18.963 13.8403C18.9983 13.8996 19.0413 13.9568 19.0899 14.0081ZM19.7693 12.45C19.6037 12.4559 19.4415 12.4856 19.2715 12.5255C19.277 12.6712 19.33 12.7931 19.3857 12.9118C19.4354 13.0165 19.4851 13.045 19.601 13.0305C19.6644 13.0224 19.729 13.0035 19.7853 12.9749C19.8974 12.9129 19.9371 12.806 19.9084 12.682C19.8854 12.5933 19.8372 12.5129 19.7693 12.45ZM24.5015 10.0799C24.4586 9.9454 24.373 9.82783 24.257 9.74427C24.1576 9.67305 24.0605 9.60022 23.959 9.53224C23.9159 9.50364 23.8657 9.48854 23.8171 9.46911C23.7553 9.4443 23.7029 9.4648 23.6626 9.51443C23.6273 9.55976 23.598 9.60993 23.5616 9.65471C23.5174 9.71082 23.4578 9.72647 23.3888 9.70596C23.3253 9.68816 23.2922 9.6396 23.2895 9.56029C23.2873 9.52831 23.2895 9.4962 23.2961 9.4648C23.3513 9.25277 23.4407 9.05746 23.5787 8.88482C23.5986 8.86016 23.6218 8.8382 23.6477 8.81953C23.715 8.76936 23.7785 8.77152 23.8425 8.82169C24.0754 9.05153 24.2741 9.23496 24.4855 9.40275C24.7145 9.58349 24.7769 9.843 24.8166 10.1063C24.8095 10.1441 24.8084 10.1764 24.7973 10.205C24.7899 10.2263 24.7761 10.2448 24.7577 10.2582C24.7392 10.2716 24.7171 10.2792 24.6941 10.28C24.6478 10.2838 24.6003 10.2789 24.5743 10.2347C24.5468 10.1861 24.5197 10.1338 24.5015 10.0799ZM24.0279 11.3132C24.1163 11.2895 24.1764 11.338 24.1897 11.4276C24.1952 11.4653 24.1952 11.5026 24.1957 11.5204C24.1957 11.7729 24.124 11.8926 23.8182 11.9142C23.6907 11.9072 23.6526 11.8738 23.6405 11.8095C23.6129 11.6466 23.6626 11.5074 23.7989 11.4108C23.8651 11.3634 23.9479 11.3353 24.0279 11.3132ZM33 8.18963e-06L31.097 5.16267H28.6685V7.99892C28.6663 8.07554 28.6696 8.15161 28.6685 8.22768C28.6382 12.4597 25.1588 15.891 20.8616 15.9935L20.4609 15.9995V13.645L20.6071 13.5819C20.7286 13.5317 20.8334 13.4616 20.9019 13.3461C20.9786 13.2188 21.0917 13.1681 21.244 13.1686C21.4538 13.1702 21.4924 13.1319 21.5327 12.9377C21.5691 12.7262 21.5973 12.5498 21.6348 12.376C21.6701 12.2131 21.6519 12.0593 21.5592 11.9191C21.3964 11.6677 21.233 11.4152 21.0625 11.1691C20.9444 10.9997 20.8825 10.9911 20.7214 11.133L20.8687 11.4011C20.9857 11.5603 21.105 11.72 21.2187 11.8829C21.2574 11.9334 21.2843 11.9916 21.2976 12.0534C21.342 12.2996 21.2994 12.5532 21.1767 12.7726C21.1613 12.7996 21.1221 12.8152 21.0856 12.8417C21.0652 12.7996 21.0443 12.7737 21.0382 12.7445C21.0278 12.6881 21.0228 12.6308 21.0233 12.5735C21.0233 12.3631 20.9543 12.1797 20.818 12.0124C20.6507 11.8106 20.4962 11.5986 20.3406 11.3882C20.1882 11.1842 20.2081 10.969 20.3913 10.7893C20.4708 10.7138 20.5536 10.6426 20.6353 10.5692C20.7484 10.4688 20.8323 10.3501 20.8836 10.2104C20.9239 10.1036 20.9604 9.99407 20.9857 9.88347C21.0438 9.6094 21.0692 9.32968 21.0614 9.04991L21.0636 8.84057C21.0636 8.78824 21.0834 8.74184 21.121 8.70354C21.1817 8.64311 21.2755 8.64797 21.3219 8.72026C21.3496 8.76266 21.3698 8.80936 21.3815 8.85838C21.4378 9.10116 21.4681 9.34664 21.44 9.59536C21.4053 9.90447 21.3397 10.2095 21.244 10.5061C21.2247 10.5643 21.1916 10.6204 21.2065 10.6965C21.2562 10.6965 21.3003 10.7014 21.3439 10.6965C21.4339 10.6857 21.5239 10.6679 21.6144 10.6571C21.9213 10.6237 22.1878 10.5109 22.4036 10.2881C22.5019 10.1867 22.6101 10.0955 22.7149 9.99892C22.7552 9.9617 22.8016 9.94389 22.8562 9.96655C22.9075 9.98813 22.9379 10.0426 22.9208 10.1106C22.9042 10.1845 22.8822 10.2584 22.8479 10.3264C22.7916 10.4402 22.7298 10.5525 22.6592 10.6582C22.5091 10.8821 22.3827 11.1168 22.2866 11.3677C22.2281 11.5225 22.1597 11.6736 22.1045 11.8284C22.0504 11.9854 22.089 12.0297 22.2513 12.0092C22.3799 11.9941 22.4152 12.021 22.4241 12.1462C22.4279 12.1964 22.423 12.2476 22.4241 12.2973C22.4252 12.3545 22.4241 12.4127 22.434 12.4688C22.4737 12.696 22.7282 12.8411 22.9489 12.7618C23.0521 12.724 23.1498 12.6722 23.247 12.6226C23.3215 12.5832 23.3905 12.5357 23.4622 12.4915C23.6626 12.3674 23.8806 12.2892 24.1179 12.2703C24.2153 12.2637 24.3129 12.2619 24.4104 12.2649C24.4885 12.2694 24.5665 12.2555 24.6378 12.2243C24.7092 12.1931 24.7719 12.1456 24.8205 12.0858C24.879 12.0189 24.9397 11.9509 25.0082 11.8926C25.1241 11.7917 25.2102 11.7847 25.3432 11.8657C25.448 11.9282 25.5474 12.0005 25.6484 12.0701C25.8084 12.1797 25.9751 12.2784 26.1551 12.3523C26.3184 12.4187 26.4879 12.4602 26.6667 12.4424C26.6899 12.4392 26.7108 12.4284 26.7517 12.4138C26.7092 12.376 26.6838 12.3491 26.6545 12.3275C26.5729 12.2654 26.4829 12.2115 26.4062 12.1441C26.2943 12.0475 26.1889 11.944 26.0905 11.8344C25.9691 11.6952 25.8581 11.5463 25.745 11.3984C25.6776 11.3132 25.6109 11.2274 25.5535 11.1357C25.5258 11.0862 25.5099 11.0312 25.5071 10.9749C25.5057 10.9574 25.5089 10.9398 25.5165 10.9239C25.524 10.9079 25.5357 10.8941 25.5502 10.8838C25.5648 10.8735 25.5819 10.8671 25.5997 10.8651C25.6176 10.8631 25.6357 10.8656 25.6523 10.8724C25.7069 10.8923 25.7574 10.9217 25.8013 10.9593C25.9542 11.0974 26.1037 11.2382 26.2527 11.3801C26.3449 11.4691 26.4305 11.5651 26.5243 11.652C26.6325 11.7534 26.7517 11.8414 26.8979 11.8867C27.0563 11.9342 27.1424 11.9331 27.3389 11.8597C27.361 11.8327 27.2379 11.7788 27.2379 11.7788C26.8251 11.5738 26.5193 11.2986 26.25 10.9296C26.0683 10.6742 25.9121 10.4023 25.7836 10.1176C25.6313 9.78851 25.5192 9.44322 25.3951 9.10224C25.2444 8.69059 25.0921 8.28001 24.9337 7.87052C24.8288 7.60022 24.6632 7.36553 24.4783 7.14217C24.2333 6.84759 23.933 6.61829 23.6173 6.40357C23.2972 6.18506 22.9539 6.00756 22.6128 5.82196C22.0454 5.51444 21.4521 5.25385 20.9068 4.90748C20.813 4.85353 20.7688 4.83248 20.7252 4.81468C20.6693 4.79241 20.612 4.77367 20.5536 4.75857L20.4609 4.74238V8.18963e-06H33ZM20.6038 6.41382C20.5628 6.38286 20.5266 6.34635 20.4962 6.30537C20.4749 6.27695 20.4628 6.24293 20.4616 6.20772C20.4603 6.17251 20.4698 6.13774 20.489 6.10791C20.5058 6.07679 20.5313 6.05105 20.5627 6.03373C20.594 6.01642 20.6297 6.00827 20.6656 6.01026C20.6971 6.01133 20.7313 6.01349 20.7606 6.02536C20.8262 6.05072 20.8947 6.07392 20.9537 6.11168C21.2429 6.29242 21.4742 6.52819 21.642 6.81953C21.7165 6.94794 21.7551 7.09199 21.7568 7.20529C21.7491 7.25385 21.7568 7.31589 21.6894 7.34449C21.642 7.36337 21.5912 7.34341 21.5482 7.27435C21.3671 6.97761 21.1039 6.76612 20.8213 6.5719C20.7466 6.52189 20.6744 6.46916 20.6038 6.41382ZM13.8058 13.8074C13.545 14.0496 13.2679 14.2744 12.9762 14.4802C11.5831 15.4693 9.90516 16.0014 8.18336 16C3.67139 16 0 12.4095 0 7.99892C0 3.58781 3.67139 8.18963e-06 8.18336 8.18963e-06C9.90533 -0.00240684 11.5837 0.529359 12.9768 1.51876C11.7043 2.72588 10.814 4.2654 10.412 5.95361C10.1265 5.65542 9.78134 5.41775 9.39797 5.25534C9.01459 5.09293 8.60118 5.00923 8.18336 5.00945C6.49668 5.00945 5.1246 6.35069 5.1246 7.99946C5.1246 9.64824 6.49668 10.9895 8.18336 10.9895C9.06146 10.9895 9.85292 10.6264 10.412 10.0453C10.9472 9.4925 11.2449 8.76002 11.2438 7.99892C11.2431 6.82272 11.5084 5.66092 12.0208 4.59668C12.5332 3.53245 13.2799 2.59212 14.2076 1.84301C14.3467 1.72971 14.4891 1.62288 14.6353 1.5193C15.9831 0.563267 17.6295 8.18963e-06 19.4746 8.18963e-06L19.4729 4.89345C19.4729 4.89345 19.4354 4.93122 19.3697 4.95819C19.2787 4.99115 19.1844 5.0143 19.0882 5.02725C18.3658 5.10603 17.696 5.43457 17.1996 5.95361C16.6651 6.50684 16.3675 7.23906 16.3678 8C16.3678 10.2838 15.3826 12.3491 13.8058 13.8074Z" fill="white"/>
</svg>
