<svg width="41" height="9" viewBox="0 0 41 9" fill="none" xmlns="http://www.w3.org/2000/svg">
<path d="M40.9325 0.255773C40.7882 0.0212939 40.524 0.00361665 40.4178 0H23.8417C23.3723 0 22.993 0.139438 22.7126 0.415106C22.5113 0.611812 22.3725 0.868395 22.3007 1.17762C22.2995 1.18485 22.28 1.24935 22.1382 1.24935H18.8617C18.7198 1.24935 18.7003 1.18485 18.6991 1.17762C18.6273 0.868395 18.4888 0.611812 18.2872 0.415106C18.0068 0.139438 17.6276 0 17.1583 0H0.582043C0.475853 0.00361665 0.211599 0.0214949 0.0672793 0.255773C-0.00119058 0.370099 -0.0526425 0.562787 0.0959823 0.831825C0.0972123 0.834236 0.399591 1.3271 0.399591 1.3271C0.523 1.52542 0.664652 1.59916 0.962927 1.61764C0.967232 1.61805 1.1054 1.63211 1.20216 1.79707L1.5113 2.32932C1.57628 2.45148 1.73003 2.7378 2.25442 2.80732C2.26324 2.80852 2.41617 2.8252 2.50063 2.98273C2.50186 2.98454 2.88233 3.64116 2.88233 3.64116C2.99344 3.85233 3.14925 3.93049 3.43214 4.01609C3.43276 4.01609 10.3648 6.01067 10.3648 6.01067C10.6004 6.07898 10.6967 6.33958 10.6967 6.33958C10.8624 6.75891 11.0774 7.1039 12.1596 7.42397C12.1602 7.42437 17.8313 8.94075 17.8313 8.94075C17.9006 8.96325 18.5503 9.15694 19.0396 8.69421C19.0396 8.69421 20.3661 7.45331 20.3696 7.45089C20.37 7.44969 20.4252 7.39464 20.5002 7.39464C20.575 7.39464 20.6304 7.44949 20.6308 7.45089C20.6343 7.45331 21.9608 8.69421 21.9608 8.69421C22.4502 9.15694 23.0996 8.96325 23.1691 8.94075C23.1691 8.94075 28.84 7.42457 28.8408 7.42397C29.923 7.1039 30.1381 6.75871 30.3037 6.33958C30.3037 6.33958 30.3999 6.07898 30.6354 6.01067C30.6354 6.01067 37.5677 4.01609 37.5681 4.01609C37.851 3.93049 38.0068 3.85233 38.1179 3.64116C38.1179 3.64116 38.4984 2.98434 38.4996 2.98273C38.5841 2.8252 38.737 2.80872 38.7458 2.80732C39.2702 2.7378 39.424 2.45148 39.4887 2.32932L39.7981 1.79707C39.8948 1.63211 40.033 1.61825 40.0373 1.61764C40.3354 1.59916 40.4772 1.52542 40.6006 1.3271C40.6006 1.3271 40.903 0.834236 40.904 0.831825C41.0527 0.562787 41.0012 0.370099 40.9325 0.255773ZM19.063 4.04944H19.6353L18.8055 6.98294C18.3438 6.92125 17.8926 6.83526 17.4515 6.72335C18.055 5.72234 18.8608 4.38478 19.063 4.04944ZM18.7844 4.04944L17.2116 6.65945C16.7873 6.54231 16.373 6.40106 15.9681 6.2353C16.8262 5.35906 17.8586 4.30421 18.1079 4.04944H18.7844ZM15.0819 4.04944H16.5665L14.4937 5.50333C14.1338 5.29035 13.7838 5.05587 13.4439 4.80049C14.2221 4.44345 14.9427 4.11333 15.0819 4.04944ZM13.2324 4.63795C13.2143 4.62348 12.741 4.23368 12.5401 4.04944H14.5159L13.2324 4.63795ZM16.9785 4.04944H17.7752L15.7332 6.13664C15.3877 5.98715 15.0503 5.81898 14.7203 5.63433C15.7002 4.94636 16.7217 4.22946 16.9785 4.04944ZM17.1583 0.302393C17.5425 0.302393 17.8488 0.412499 18.0693 0.628895C18.2286 0.785014 18.3391 0.991359 18.398 1.24312C18.398 1.24312 18.4098 1.28612 18.4248 1.31726H10.2818C10.1574 1.11694 9.95216 0.753468 9.95216 0.753468C9.94314 0.737193 9.80538 0.494276 9.5436 0.302393C13.4511 0.302393 17.1583 0.302393 17.1583 0.302393ZM11.6272 3.12056C11.52 2.9988 11.4173 2.87905 11.3193 2.7601L12.0479 2.66386V3.03597L11.6272 3.12056ZM12.0477 3.27548V3.57144C11.9665 3.48906 11.8878 3.40588 11.8115 3.3233C11.9062 3.30361 11.9858 3.28793 12.0477 3.27548ZM11.1461 2.54592C11.0485 2.42195 10.956 2.30059 10.8687 2.18164L12.0477 2.10509V2.42677L11.1461 2.54592ZM12.0477 1.86096L10.7006 1.94837C10.6034 1.81133 10.5141 1.67853 10.4317 1.55194H12.0475L12.0477 1.86096ZM0.985274 1.31726C0.774534 1.30179 0.729838 1.27728 0.663623 1.17079C0.664238 1.17159 0.388719 0.722527 0.366784 0.686963C0.321069 0.604383 0.306106 0.543299 0.307951 0.500301C0.313076 0.390194 0.389334 0.305407 0.590439 0.302393L8.85234 0.302994C9.41158 0.302994 9.74122 0.86558 9.74122 0.86558C9.81379 0.99799 9.9005 1.14989 10.0018 1.31726H0.985274ZM2.10498 2.46434C1.89444 2.39321 1.82761 2.26944 1.78456 2.18907C1.65583 1.97449 1.4865 1.65381 1.40327 1.55174H10.1482C10.2322 1.68335 10.3232 1.82198 10.423 1.96625L2.75134 2.46575C2.6306 2.48022 2.28066 2.50754 2.10498 2.46434ZM3.52215 3.54753C3.24294 3.5841 3.1552 3.49368 3.13921 3.47218L2.77184 2.83826C2.74683 2.79105 2.71732 2.75167 2.68657 2.71691C2.73372 2.71269 10.5875 2.20012 10.5875 2.20012C10.677 2.32389 10.7716 2.45128 10.8726 2.58108L3.52215 3.54753ZM5.30421 4.24032C4.54284 4.0201 3.92394 3.84268 3.6599 3.76714L11.0424 2.79607C11.1432 2.92044 11.2486 3.04662 11.3591 3.17401L6.30788 4.19189C6.12031 4.22987 5.58157 4.31144 5.30421 4.24032ZM7.80726 4.96023C7.24351 4.79828 6.64942 4.6273 6.08895 4.46555C6.23839 4.44526 6.34519 4.42376 6.35647 4.42135C6.35585 4.42195 10.0157 3.68456 11.5397 3.37775C11.6904 3.54331 11.8484 3.70967 12.0159 3.87644L8.63156 4.89975C8.62398 4.90216 8.16232 5.05225 7.80726 4.96023ZM10.4466 5.71992C10.3745 5.69903 9.57066 5.46756 8.53459 5.16899C8.6334 5.14749 8.69838 5.12599 8.70556 5.12358C8.70248 5.12479 11.5464 4.26483 12.2086 4.06451C12.4515 4.29537 12.7121 4.52503 12.9909 4.74866L11.1604 5.58832C11.0397 5.64799 10.6867 5.78362 10.4466 5.71992ZM11.9134 7.02413C11.1971 6.75931 11.0899 6.49549 10.988 6.23972C10.9796 6.21701 10.9273 6.08058 10.8099 5.94958C11.0524 5.90457 11.2529 5.80612 11.266 5.79949C11.264 5.79989 12.2348 5.35585 13.2 4.91241C13.5497 5.18145 13.9109 5.42858 14.2816 5.65221L12.5704 6.85193C12.5651 6.85736 12.2102 7.11575 11.9134 7.02413ZM13.9665 7.59355L12.4501 7.18868C12.6014 7.12419 12.7047 7.04804 12.7131 7.0414C12.7119 7.04261 13.5604 6.44747 14.506 5.78442C14.8478 5.97992 15.1977 6.15814 15.5564 6.31707L14.5603 7.33435C14.4714 7.42618 14.194 7.64679 13.9665 7.59355ZM16.0704 8.15634L14.4384 7.71973C14.6077 7.62529 14.725 7.50615 14.734 7.49731C14.734 7.49731 15.2006 7.01991 15.7899 6.41754C16.211 6.59335 16.6421 6.74404 17.0845 6.86921L16.5454 7.76473C16.4798 7.88067 16.2598 8.18567 16.0704 8.15634ZM18.1954 8.59777C18.1029 8.65262 17.9955 8.66528 17.868 8.63655L16.4416 8.25559C16.6159 8.11615 16.7333 7.91764 16.7534 7.88107C16.7526 7.88188 16.9949 7.48043 17.3235 6.93452C17.7848 7.05407 18.2571 7.14689 18.7401 7.21179L18.464 8.18688C18.4644 8.18989 18.3992 8.47581 18.1954 8.59777ZM18.8262 8.475C18.7175 8.57848 18.5956 8.63655 18.4775 8.66769C18.6355 8.49309 18.6905 8.27348 18.6987 8.23952L18.9812 7.24253C19.3354 7.28272 19.696 7.30884 20.0615 7.3209C19.7688 7.59355 18.8262 8.475 18.8262 8.475ZM20.3801 7.09184C19.9262 7.08822 19.482 7.0607 19.0462 7.01227L19.8844 4.04944H20.3799V7.09184H20.3801ZM22.6021 1.24312C22.6599 0.991359 22.7708 0.785014 22.9301 0.628895C23.1507 0.412499 23.4575 0.302393 23.8411 0.302393C23.8411 0.302393 27.5489 0.302393 31.456 0.302393C31.1942 0.494477 31.0567 0.737193 31.0475 0.753468C30.9593 0.915413 30.849 1.10509 30.7182 1.31746H22.575C22.5918 1.28813 22.6021 1.24312 22.6021 1.24312ZM28.9499 3.03557V2.66345L29.6811 2.7597C29.5829 2.87885 29.4798 2.999 29.3722 3.12016C29.1838 3.08239 29.0387 3.05345 28.9499 3.03557ZM29.1885 3.3233C29.1116 3.40648 29.0317 3.49066 28.9499 3.57405V3.27568L29.1885 3.3233ZM28.9499 2.42677V2.10509L30.1321 2.18164C30.0448 2.30059 29.9515 2.42195 29.8541 2.54592L28.9499 2.42677ZM28.9499 1.86096V1.55174H30.5688C30.4866 1.67832 30.3964 1.81133 30.3 1.94816L28.9499 1.86096ZM24.4325 4.04944H25.9175L27.5555 4.80049C27.2152 5.05587 26.8653 5.29035 26.5055 5.50373C25.715 4.94898 24.8821 4.36449 24.4325 4.04944ZM26.2792 5.63433C25.9501 5.81918 25.6119 5.98715 25.2673 6.13664C24.5235 5.37715 23.6281 4.46133 23.2245 4.04944H24.0211L26.2792 5.63433ZM26.4836 4.04944H28.4595C28.2582 4.24554 27.7828 4.62529 27.7673 4.63795C27.2867 4.41713 26.8181 4.20314 26.4836 4.04944ZM22.215 4.04944H22.8918L25.0313 6.2359C24.6273 6.40086 24.2126 6.54151 23.7882 6.65925L22.215 4.04944ZM21.9364 4.04944L23.5482 6.72274C23.107 6.83526 22.6552 6.92125 22.1941 6.98294L21.3643 4.04944H21.9364ZM20.6199 7.09244V4.04944H21.1156L21.9535 7.01227C21.5174 7.0613 21.073 7.08822 20.6199 7.09244ZM21.9666 8.28212C21.9666 8.28212 21.1987 7.56361 20.9379 7.3209C21.3034 7.30824 21.6642 7.28192 22.0185 7.24133L22.3009 8.24012C22.3089 8.27488 22.3653 8.49389 22.5223 8.66789C22.3057 8.60741 22.2403 8.54453 21.9666 8.28212ZM23.1314 8.63655C23.0039 8.66528 22.8963 8.65262 22.8036 8.59777C22.6049 8.47862 22.5389 8.20476 22.535 8.18849L22.2589 7.21179C22.7417 7.14609 23.2134 7.05326 23.6744 6.93371L24.2474 7.88408C24.2671 7.91804 24.3831 8.11676 24.5576 8.2554L23.1314 8.63655ZM24.9292 8.15634C24.7396 8.18567 24.5196 7.88067 24.4557 7.76695L23.9143 6.86881C24.3565 6.74384 24.789 6.59415 25.2093 6.41773L26.2652 7.49791C26.2747 7.50695 26.3915 7.6259 26.5608 7.71973L24.9292 8.15634ZM27.3027 7.52182L27.0329 7.59355C26.8058 7.647 26.5282 7.42618 26.4395 7.33456C26.4395 7.33456 26.0036 6.89031 25.444 6.31727C25.8021 6.15814 26.1521 5.98073 26.4936 5.78442L28.289 7.04342C28.2964 7.04924 28.3989 7.12459 28.5495 7.18868C28.1506 7.29497 27.3027 7.52182 27.3027 7.52182ZM30.0122 6.23851C29.9101 6.49509 29.8033 6.75931 29.0844 7.02413C28.7875 7.11454 28.4345 6.85736 28.4315 6.85434C28.43 6.85314 27.6295 6.29155 26.7179 5.65221C27.0885 5.42798 27.4495 5.18165 27.8 4.91241L29.7373 5.8011C29.748 5.80653 29.9476 5.90538 30.1897 5.94958C30.0739 6.07878 30.0216 6.21199 30.0122 6.23851ZM30.5532 5.71992C30.3131 5.78382 29.9595 5.64799 29.8421 5.59013C29.8421 5.59013 28.9374 5.17522 28.0087 4.74926C28.2875 4.52502 28.5483 4.29597 28.791 4.06451L32.2967 5.12478C32.3033 5.12719 32.3672 5.14749 32.4646 5.16899L30.5532 5.71992ZM33.194 4.95962C32.8389 5.05285 32.3754 4.90216 32.3707 4.90096L32.3654 4.89915C32.3654 4.89915 32.3646 4.89874 32.3642 4.89874L28.9835 3.87664C29.151 3.70988 29.3105 3.54411 29.4603 3.37794L34.6434 4.42215C34.6548 4.42396 34.7608 4.44546 34.91 4.46575L33.194 4.95962ZM35.6977 4.23951C35.4209 4.31144 34.8797 4.23007 34.6917 4.19189C34.6917 4.19189 31.2344 3.49548 29.6412 3.17441C29.7517 3.04702 29.8578 2.92084 29.9583 2.79587L37.3397 3.76693L35.6977 4.23951ZM38.2257 2.84128C38.2278 2.83886 37.924 3.36288 37.8608 3.47178C37.8454 3.49207 37.7592 3.5841 37.4781 3.54753L30.1278 2.58108C30.2287 2.45189 30.3242 2.32369 30.4138 2.20012L38.2218 2.70786C38.2333 2.70907 38.2661 2.71268 38.3131 2.7167C38.2809 2.75287 38.2516 2.79346 38.2257 2.84128ZM39.5297 1.64738L39.2148 2.18928C39.1718 2.26944 39.1056 2.39321 38.8951 2.46434C38.7194 2.50734 38.3694 2.48001 38.2483 2.46555L30.5776 1.96605C30.6768 1.82199 30.7689 1.68314 30.8525 1.55154H39.5957C39.573 1.58047 39.5506 1.61142 39.5297 1.64738ZM40.6326 0.686963C40.6283 0.693594 40.3354 1.17159 40.3354 1.17159C40.2798 1.2614 40.2454 1.30199 40.0168 1.31626C40.0154 1.31626 30.9987 1.31746 30.9987 1.31746C31.0995 1.15009 31.186 0.998194 31.2588 0.865985C31.2613 0.861364 31.5806 0.303392 32.1479 0.303392L40.4092 0.302791C40.4959 0.306408 40.6086 0.315854 40.6681 0.412298C40.6753 0.425358 40.6923 0.452283 40.6923 0.500705C40.6921 0.543301 40.6781 0.604383 40.6326 0.686963Z" fill="white"/>
<path d="M12.2912 3.81436C12.29 3.81315 12.289 3.81195 12.2877 3.81074V1.55295H28.7105V3.81194C28.71 3.81315 28.7092 3.81315 28.7086 3.81375L12.2912 3.81436Z" fill="url(#paint0_linear_15_5080)"/>
<path d="M13.3789 1.9136H13.3105L12.6088 3.45249H12.7988L12.8019 3.44365C12.8586 3.25639 12.9318 3.07696 13.003 2.90477C13.003 2.90477 13.013 2.88006 13.0177 2.8684C13.035 2.8684 13.5431 2.8684 13.5604 2.8684C13.6338 3.03195 13.7088 3.22002 13.7893 3.44425L13.7926 3.45269H14.0548L13.3789 1.9136ZM13.0706 2.75086C13.085 2.7169 13.2693 2.29396 13.2912 2.24373C13.3127 2.29396 13.5005 2.7167 13.5155 2.75086C13.4784 2.75086 13.1065 2.75086 13.0706 2.75086ZM14.1301 3.34299L14.136 3.34881C14.2188 3.43742 14.4058 3.47861 14.5064 3.47861C14.8357 3.47861 15.0663 3.27045 15.0663 2.97168C15.0663 2.72394 14.875 2.651 14.6901 2.57927C14.5259 2.51518 14.3697 2.4561 14.3697 2.27306C14.3697 2.13422 14.4814 2.03396 14.6346 2.03396C14.7569 2.03396 14.8494 2.09725 14.8963 2.21339L14.8996 2.22182H14.9414L15.0068 2.02753L14.9997 2.0209C14.9101 1.94193 14.7725 1.91381 14.6747 1.91381C14.3677 1.91381 14.1698 2.08178 14.1698 2.34258C14.1698 2.6082 14.372 2.68536 14.5499 2.75468C14.7108 2.81556 14.8617 2.87423 14.8617 3.05666C14.8617 3.22584 14.733 3.35926 14.569 3.35926C14.4187 3.35926 14.3191 3.29597 14.2221 3.14045L14.2184 3.13462H14.1766L14.1301 3.34299ZM15.1505 1.94535V2.10388L15.1655 2.10268C15.2979 2.08901 15.4261 2.07696 15.635 2.07635C15.635 2.10328 15.635 3.45731 15.635 3.45731H15.8568C15.8568 3.45731 15.8568 2.10388 15.8568 2.07696C16.0136 2.07696 16.1635 2.0858 16.3035 2.10268L16.319 2.10449V1.94535H15.1505ZM17.1007 1.9136C16.611 1.9136 16.2684 2.2373 16.2684 2.69963C16.2684 3.16617 16.6015 3.47881 17.0964 3.47881C17.6079 3.47881 17.9525 3.15231 17.9525 2.66667C17.9525 2.14608 17.5244 1.9136 17.1007 1.9136ZM17.5107 3.21017C17.4016 3.32329 17.2649 3.38076 17.1023 3.38076C16.7438 3.38076 16.5119 3.12357 16.5119 2.72594C16.5119 2.28511 16.7463 2.01166 17.1224 2.01166C17.3 2.01166 17.4677 2.08821 17.571 2.2162C17.6848 2.35845 17.7079 2.50694 17.7079 2.68455C17.7085 2.6942 17.7092 2.70485 17.7092 2.7151C17.7092 2.85976 17.6491 3.0649 17.5107 3.21017ZM19.3526 1.94535C19.3526 1.94535 19.3526 3.03437 19.3526 3.06069C19.3514 3.06069 19.351 3.06069 19.3502 3.06069C19.3422 3.05165 18.2998 1.94535 18.2998 1.94535H18.1936V3.45229H18.3448C18.3448 3.45229 18.3448 2.31304 18.3448 2.28612C18.3461 2.28612 18.3469 2.28612 18.3481 2.28612C18.3563 2.29516 19.2983 3.31726 19.2983 3.31726L19.4164 3.45229H19.5041V1.94535H19.3526ZM21.975 1.94535H21.9205L21.548 2.6072C21.548 2.6072 21.3124 3.02833 21.2909 3.06611C21.0613 2.69038 20.8543 2.29516 20.6782 1.95258L20.6745 1.94535H20.5964L20.5951 1.95781C20.5732 2.18043 20.441 3.08761 20.3832 3.43742L20.3801 3.45249H20.5664V3.43943C20.5664 3.22705 20.6048 2.91059 20.6458 2.57505C20.6458 2.57505 20.663 2.42677 20.6702 2.36749C20.6964 2.41652 20.9857 2.9548 21.0962 3.17662L21.221 3.42898H21.2628L21.2665 3.42054C21.3952 3.13101 21.5767 2.80029 21.8251 2.36488C21.8604 2.62448 21.9069 3.14307 21.9326 3.44024L21.934 3.45229H22.1695L22.1675 3.43722C22.1142 3.07174 22.0564 2.58791 21.9883 1.95761L21.9871 1.94515H21.975V1.94535ZM23.0293 1.9136H22.9604L22.2583 3.45249H22.4494L22.452 3.44365C22.509 3.25458 22.5826 3.07455 22.6537 2.90115C22.6537 2.90115 22.6628 2.87965 22.6669 2.8684C22.6843 2.8684 23.1923 2.8684 23.2099 2.8684C23.2845 3.03577 23.3614 3.22826 23.4383 3.44425L23.4415 3.45269H23.7042L23.0293 1.9136ZM22.7206 2.75086C22.7349 2.7169 22.9194 2.29396 22.9412 2.24373C22.9631 2.29396 23.1505 2.7167 23.1654 2.75086C23.1285 2.75086 22.7569 2.75086 22.7206 2.75086ZM24.3796 2.70786C24.6572 2.65301 24.823 2.4981 24.823 2.28873C24.823 2.05847 24.6582 1.94555 24.3185 1.94555H23.8366V3.45269H24.0578C24.0578 3.45269 24.0578 2.75648 24.0578 2.73036C24.0752 2.73036 24.1127 2.73036 24.1222 2.73036C24.1293 2.73921 24.2946 2.92948 24.2946 2.92948C24.2937 2.92888 24.5551 3.2602 24.5551 3.2602L24.6982 3.45269H24.9881C24.9881 3.45269 24.4059 2.73961 24.3796 2.70786ZM24.058 2.62167C24.058 2.59776 24.058 2.07635 24.058 2.05224C24.149 2.04802 24.2907 2.0422 24.3673 2.05425C24.5209 2.07877 24.599 2.16657 24.599 2.31425C24.599 2.46575 24.4975 2.57625 24.3265 2.60981C24.2304 2.6289 24.114 2.62548 24.058 2.62167ZM24.9481 1.94535V2.10388L24.9631 2.10268C25.0957 2.08901 25.2236 2.07696 25.4317 2.07635C25.4317 2.10328 25.4317 3.45731 25.4317 3.45731H25.6547C25.6547 3.45731 25.6547 2.10388 25.6547 2.07696C25.8109 2.07696 25.961 2.0858 26.1012 2.10268L26.1168 2.10449V1.94535H24.9481ZM26.2992 3.45249H26.5086V1.94535H26.2992V3.45249ZM27.9938 1.94535C27.9938 1.94535 27.9938 3.03437 27.9938 3.06069C27.993 3.06069 27.9925 3.06069 27.9919 3.06069C27.9837 3.05165 26.9415 1.94535 26.9415 1.94535H26.8351V3.45229H26.9864C26.9864 3.45229 26.9864 2.31304 26.9864 2.28612C26.9876 2.28612 26.9883 2.28612 26.9891 2.28612C26.9971 2.29516 27.9407 3.31726 27.9407 3.31726L28.0588 3.45229H28.1451V1.94535H27.9938Z" fill="white"/>
<defs>
<linearGradient id="paint0_linear_15_5080" x1="11.4835" y1="-8.92253" x2="36.5644" y2="6.36555" gradientUnits="userSpaceOnUse">
<stop stop-color="#339966"/>
<stop offset="1" stop-color="#004F32"/>
</linearGradient>
</defs>
</svg>
