<svg width="680" height="896" viewBox="0 0 680 896" fill="none" xmlns="http://www.w3.org/2000/svg">
<path d="M339.987 91.2544C137.684 91.2544 16.9676 161.955 16.9676 161.955L19.4286 322.95C19.4286 396.854 43.86 711.299 339.984 882.493C636.27 711.299 660.552 396.957 660.552 322.934L663 161.952C663 161.952 542.374 91.2544 339.987 91.2544Z" fill="#231F20"/>
<path d="M650.851 173.51C650.851 173.51 545.619 107.254 339.987 107.254C134.381 107.254 29.1396 173.51 29.1396 173.51L32.368 322.938C32.368 381.485 43.7078 695.114 339.987 865.318C636.273 695.142 647.596 381.501 647.596 322.938L650.851 173.51Z" fill="#FFF200"/>
<path d="M663.816 109.498L339.987 55.104L16.1872 109.498L16.9968 163.194C16.9968 163.194 179.718 93.3952 339.987 93.4112C500.27 93.4112 662.987 163.194 662.987 163.194L663.816 109.498Z" fill="#ED1C24"/>
<path d="M16.1872 93.5008V74.3104L340.013 13.504L663.816 74.3104V93.5136L339.987 34.3104L16.1872 93.5008Z" fill="#009A4E"/>
<path d="M332.695 132.042C332.695 132.042 332.348 135.507 331.516 137.533C330.765 139.386 328.706 140.666 328.848 141.904C328.981 143.158 330.331 144.614 332.365 145.664C334.398 146.698 335.217 147.501 337.277 148.026C339.194 148.477 341.619 149.891 342.335 148.288C343.031 146.698 341.975 144.701 340.793 142.81C338.766 139.533 337.756 138.742 334.754 134.198C334.116 133.235 333.602 132.17 332.695 132.042ZM317.521 487.75C317.712 487.181 322.534 490.154 325.011 491.613C330.247 494.701 332.62 496.538 337.257 500.003C340.894 502.733 342.675 504.157 346.376 507.318C350.903 511.162 353.338 514.445 354.558 513.667C356.297 511.574 351.667 505.478 347.564 502.157C343.568 498.934 339.446 496.282 336.241 494.173C332.148 491.523 331.788 490.88 325.646 486.813C319.062 482.454 313.37 476.992 313.37 476.992L306.949 471.994L296.907 463.613L285.768 453.443L277.327 444.176C277.327 444.176 270.773 436.25 269.733 434.749C268.694 433.219 265.614 428.323 263.047 424.17C260.761 420.454 256.354 414.669 255.933 414.173C253.559 411.315 248.109 412.467 241.802 408.781C234.105 404.307 232.262 400.227 232.262 400.227C232.262 400.227 231.961 399.616 231.689 399.293C231.401 398.944 230.811 398.56 230.811 398.56L226.809 395.76L224.5 394.259C224.5 394.259 222.732 392.832 220.527 391.898C218.338 390.95 213.42 388.125 213.42 388.125L204.631 382.589C204.631 382.589 201.189 379.85 200.04 378.947C198.897 378.058 196.724 376.835 196.724 376.835C196.724 376.835 195.345 376.134 194.924 376.122C194.506 376.093 192.693 375.917 192.693 375.917C192.693 375.917 191.006 375.494 189.28 377.491C187.547 379.488 187.952 378.426 190.763 389.69C191.86 394.163 191.757 409.84 192.952 414.592C194.493 420.739 198.819 428.666 199.263 429.6C199.713 430.518 200.014 433.958 200.014 433.958C200.014 433.958 199.836 436.726 200.14 438.474C201.468 446.56 213.455 441.242 216.094 452.342C218.711 463.306 214.54 474.246 214.54 474.246C214.54 474.246 211.946 479.667 208.326 480.544C204.683 481.389 199.052 473.446 194.972 466.995C190.954 460.669 187.651 452.368 186.598 449.728C185.536 447.104 184.992 446.522 183.775 444.586C181.974 441.76 180.508 442.253 178.503 437.782C176.489 433.28 178.273 431.472 177.354 427.552C176.845 425.382 176.36 425.149 175.68 422.045C175.003 418.941 174.109 409.12 174.109 409.12L172.84 399.939C172.84 399.939 172.383 395.757 171.817 393.149C169.773 383.984 169.097 375.123 169.097 375.123L168.721 371.494L168.566 367.734C168.566 367.734 168.449 365.914 168.899 364.064C169.356 362.198 170.278 360.656 170.278 360.656C170.278 360.656 172.137 357.552 172.454 356.794C172.772 356.051 176.606 351.664 176.606 351.664C176.606 351.664 178.581 350.048 181.855 348.035C185.119 346.054 188.075 346.214 188.075 346.214C188.075 346.214 188.923 346.112 194.716 346.826C200.532 347.555 212.461 350.672 215.447 351.459C218.426 352.234 221.955 353.469 224.28 354.723C230.909 358.294 232.919 356.778 227.635 352.714C224.089 349.962 223.095 348.736 220.233 346.144C217.82 343.971 215.919 342.499 214.122 340.477C212.338 338.435 207.177 330.934 207.177 330.934L203.977 326.243C203.977 326.243 202.235 324.349 201.963 324.202C201.698 324.058 200.82 323.386 200.82 323.386C200.82 323.386 198.706 323.504 196.501 323.066C194.295 322.659 193.256 325.702 193.256 325.702C193.256 325.702 188.486 334.502 183.636 339.894C175.799 348.637 170.165 354.595 167.27 359.229C163.223 365.683 164.1 372.752 162.012 376.016C160.797 377.939 160.14 378.218 159.476 379.891C157.443 384.96 164.835 387.744 163.148 393.37C160.457 402.288 139.306 411.117 136.499 409.632C133.601 408.115 135.974 396.067 136.955 392.147C137.953 388.227 140.909 382.474 141.181 382.166C141.453 381.875 142.162 380.522 142.392 379.37C142.619 378.205 142.693 375.61 142.842 374.138C142.981 372.694 143.574 370.394 143.574 370.394C143.574 370.394 143.678 369.926 145.533 365.891C147.408 361.869 154.292 352.499 159.246 343.555C162.462 337.712 163.831 334.17 167.076 328.355C170.084 322.963 175.2 314.79 175.2 314.79C175.2 314.79 177.376 310.608 178.4 309.05C179.433 307.459 181.592 304.432 183.61 301.472C185.653 298.515 186.161 296.285 188.836 293.85C191.057 291.824 192.547 290.746 195.435 289.814C199.735 288.416 202.682 289.187 207.047 290.384C211.619 291.622 214.744 293.677 217.713 296.125C220.679 298.573 222.898 301.299 222.898 301.299L224.335 303.398L225.219 303.923L227.998 305.67L234.325 309.824C234.325 309.824 249.333 319.907 250.153 320.445C250.962 320.97 253.64 323.155 254.194 323.344C254.738 323.491 258.743 319.219 266.579 313.859C275.656 307.654 278.884 308.131 281.854 306.515C284.833 304.899 286.07 303.542 288.394 301.242C291.911 297.744 291.927 295.907 295.93 291.043C299.948 286.176 303.72 283.466 303.72 283.466C303.72 283.466 304.264 282.928 311.43 274.941C318.603 266.941 321.76 260.893 321.76 260.893L325.704 253.126C325.704 253.126 331.396 241.046 333.223 236.266C335.046 231.472 335.046 229.856 335.046 229.856C335.046 229.856 335.318 228.618 333.919 226.186C332.51 223.75 331.05 224.858 328.346 225.411C323.11 226.506 319.95 225.165 314.685 224.262C309.847 223.446 307.328 222.048 302.496 221.232C297.6 220.416 294.735 219.645 289.829 220.109C289.071 220.182 287.566 220.474 286.837 220.72C284.088 221.638 283.307 221.843 281.248 223.008C278.868 224.131 277.298 224.493 274.649 224.55C272.826 224.579 271.705 224.637 270.018 223.984C268.853 223.546 268.205 223.21 267.266 222.394C266.706 221.885 266.418 221.565 265.984 220.934C265.938 220.41 265.77 220.438 266.272 219.622C266.751 218.778 267.386 218.63 267.386 218.63L269.643 218.077C269.643 218.077 272.813 217.245 273.078 217.187C273.366 217.114 276.388 216.138 277.715 215.728C279.066 215.306 280.526 214.547 280.526 214.547C280.526 214.547 281.358 213.28 281.028 212.522C280.652 211.69 278.855 211.632 278.855 211.632C278.855 211.632 276.32 212.522 276.031 212.579C275.759 212.666 271.754 213.92 271.754 213.92C271.754 213.92 268.584 214.605 266.136 215.174C263.681 215.728 260.158 216.003 260.158 216.003L259.103 215.728C259.103 215.728 257.879 214.928 257.701 214.128C257.532 213.386 257.412 212.816 257.273 211.987C256.765 208.912 256.143 207.034 256.852 204C257.153 202.733 257.458 202.048 258.018 200.854C258.481 199.85 258.785 199.296 259.388 198.362L261.347 195.245L265.002 189.898C266.256 188.63 267.081 188.003 268.652 187.158C270.996 185.862 272.353 185.485 275.251 185.162C278.126 184.87 278.502 184.899 282.566 183.997C286.643 183.094 289.525 181.491 289.525 181.491C289.525 181.491 299.249 177.965 305.184 175.082C311.385 172.08 314.118 168.845 320.562 166.352C323.282 165.302 324.852 164.822 327.663 164.122C328.022 163.888 328.194 163.67 328.298 163.277C328.586 162.259 326.986 161.776 325.908 161.894C324.956 161.981 322.738 162.986 322.229 161.907C321.831 161.046 324.263 160.554 324.263 160.554C324.263 160.554 325.399 160.029 325.412 159.389C325.454 158.442 323.767 159.053 323.023 158.979C319.263 158.573 318.962 157.888 316.349 157.245C313.253 156.486 311.579 155.555 308.409 155.437C305.573 155.306 302.924 155.917 301.178 156.339C299.41 156.762 299.352 155.059 300.042 154.739C304.996 152.451 305.1 152.246 308.587 152.102C310.504 152.029 313.179 152.451 313.467 152.582C313.755 152.73 317.573 152.541 318.57 151.565C319.551 150.602 315.413 150.646 313.467 149.888C311.683 149.174 308.934 148.986 308.998 147.805C309.073 146.624 310.414 147.267 311.353 147.046C312.531 146.771 313.24 146.784 314.448 146.608C316.637 146.317 316.838 146.141 320.079 145.85C323.311 145.574 327.948 146.899 327.948 146.899C327.948 146.899 332.792 149.04 335.178 150.147C337.565 151.27 340.45 151.824 340.45 151.824C340.45 151.824 343.808 152.32 346.411 150.701C349.028 149.098 347.558 148.077 346.619 146.621C345.728 145.235 344.595 143.286 346.272 139.526C347.752 136.25 348.503 132.461 348.947 132.109C349.439 131.686 351.528 134.602 352.836 135.824C357.573 140.195 363.884 142.381 369.79 151.562C370.253 152.304 372.491 151.123 379.365 152.16C386.246 153.21 392.224 160.493 393.765 162.227C395.316 163.962 397.347 163.901 397.347 163.901L400.653 164.323L412.656 164.525C412.656 164.525 418.109 163.578 421.247 164.742C423.446 165.542 430.761 170.381 427.425 172.234C425.087 173.514 422.889 170.688 420.79 170.544C418.294 170.384 417.193 170.835 414.975 171.389C410.318 172.554 400.326 175.542 403.949 176.752C404.247 176.838 404.717 176.941 404.717 176.941L406.543 177.232C406.543 177.232 410.93 178.224 413.557 179.258C417.585 180.832 419.443 182.563 423.19 184.707C425.269 185.917 426.218 187.126 428.513 187.795C430.638 188.406 431.978 187.782 434.148 188.16C436.994 188.656 438.6 189.21 441.194 190.448C445.037 192.298 446.475 194.512 449.953 196.976C451.662 198.214 453.113 198.419 454.405 200.08C454.703 200.458 454.969 200.634 455.088 201.085C455.561 202.614 452.556 201.712 450.963 201.466C449.205 201.174 448.441 200.314 446.834 199.571C444.445 198.48 443.292 197.226 440.669 196.746C438.752 196.397 437.632 196.688 435.686 196.774C433.814 196.861 432.784 197.152 430.909 197.181C427.678 197.226 425.839 196.931 422.681 196.291C419.145 195.562 417.407 194.179 413.835 193.466C409.888 192.65 402.806 189.283 403.512 192.634C403.852 194.266 407.611 195.622 407.611 195.622C407.611 195.622 410.134 197.008 412.595 198.054C415.062 199.104 416.39 200.691 416.39 200.691L418.083 201.946C418.083 201.946 419.822 204.307 422.079 206.944C424.326 209.597 428.248 209.523 428.248 209.523C428.248 209.523 430.637 209.523 435.786 210.557C440.902 211.606 446.177 214.723 446.177 214.723C446.177 214.723 450.189 217.418 452.488 220.144C454.803 222.838 453.476 224.224 453.197 224.515C452.919 224.79 452.993 224.646 452.715 224.79C452.436 224.922 449.545 221.395 449.545 221.395L447.508 219.648C447.508 219.648 445.468 218.262 442.861 217.418C440.261 216.589 439.426 217.155 439.426 217.155C439.426 217.155 433.879 218.672 429.103 218.541C424.317 218.41 421.781 216.531 421.781 216.531L418.757 214.522C418.757 214.522 414.204 210.298 414.058 212.291C413.952 213.648 416.063 215.149 416.063 215.149C416.063 215.149 417.549 216.621 418.511 217.539C420.334 219.315 421.072 220.221 423.18 222.083C425.285 223.962 426.619 223.962 426.619 223.962C426.619 223.962 427.756 224.224 428.177 224.298C428.588 224.368 429.358 224.589 429.358 224.589C429.358 224.589 430.068 224.851 433.367 226.179C436.67 227.504 440.19 230.346 440.19 230.346C440.19 230.346 440.527 230.637 441.019 230.694C441.518 230.765 442.505 231.232 442.784 231.322C443.069 231.392 443.91 231.392 445.808 231.654C447.699 231.946 447.003 233.126 447.003 233.126L446.65 233.606L445.105 234.64C445.105 234.64 443.069 235.21 441.654 235.267C440.248 235.338 438.289 234.582 438.289 234.582L434.005 232.982C434.005 232.982 429.718 231.875 428.811 231.728C427.882 231.597 424.022 230.838 423.404 230.694C422.766 230.547 420.79 229.85 420.305 229.587C419.806 229.296 418.831 229.091 416.529 227.984C414.201 226.861 413.272 225.552 410.393 224.646C407.521 223.744 405.762 223.555 403.58 225.069C399.869 227.603 409.211 228.013 413.89 230.301C420.745 233.635 424.618 236.115 426.273 239.728C427.911 243.357 429.579 244.682 429.579 244.682C429.579 244.682 434.394 247.085 436.592 249.606C437.771 250.96 437.965 252.099 439.125 253.469C441.793 256.531 446.928 256.384 447.965 258.992C448.939 261.424 443.804 260.333 441.122 260.083C436.285 259.616 435.129 255.261 430.625 253.482C428.089 252.49 426.451 252.477 423.844 251.616C419.126 250.074 416.908 248.045 412.164 246.589C409.305 245.728 404.088 241.971 404.707 244.854C404.866 245.568 405.264 246.093 405.484 246.515C405.688 246.938 406.889 248.451 406.889 248.451C406.889 248.451 408.508 250.55 409.218 251.088C409.914 251.658 412.993 253.946 417.358 256.304C421.723 258.662 425.499 263.181 425.499 263.181C425.499 263.181 426.794 265.018 427.419 266.314C428.06 267.741 427.623 268.179 428.591 270.189C429.588 272.198 430.071 272.579 431.34 273.802C434.523 276.861 437.858 276.25 441.955 277.91C443.046 278.333 443.13 278.522 444.338 279.776C445.52 281.03 444.118 281.584 444.118 281.584C444.118 281.584 439.597 282.707 436.673 282.474C432.865 282.166 431.194 281.03 427.471 279.222C423.76 277.418 421.778 274.154 421.425 273.933C421.075 273.728 420.172 272.752 419.469 272.256C418.76 271.789 416.97 271.395 415.331 270.944C413.712 270.506 412.734 270.435 411.109 269.984C408.874 269.357 406.543 268.381 405.497 268.045C404.435 267.696 402.006 267.258 400.261 268.294C396.725 270.349 405.707 271.76 408.521 274.691C409.949 276.208 410.526 277.254 411.886 278.8C412.915 279.997 413.34 280.842 414.625 281.789C415.509 282.432 417.093 283.101 417.093 283.101C417.093 283.101 419.256 284.093 422.416 285.811C425.599 287.546 429.316 292.413 429.316 292.413L431.557 295.808L432.911 297.76L433.251 298.662L433.736 299.77C433.736 299.77 435.355 301.853 436.55 302.538C437.745 303.235 437.538 303.862 437.538 303.862C437.538 303.862 437.392 304.285 436.55 304.768C435.708 305.264 435.274 304.838 434.089 304.49C432.875 304.157 432.13 303.034 431.075 302.202C430.013 301.357 428.857 299.274 426.92 298.093C425.223 297.088 422.992 296.723 422.137 296.432C421.292 296.157 419.191 294.845 418.346 294.496C417.504 294.147 415.321 293.168 415.321 293.168C415.321 293.168 411.076 290.81 408.777 290.182C406.446 289.555 407.919 290.97 407.919 290.97C407.919 290.97 410.024 294.176 412.022 295.472C414.615 297.178 418.258 298.675 417.083 300.048C416.286 300.966 415.192 300.63 413.997 300.486C412.051 300.282 409.697 297.965 409.697 297.965C409.697 297.965 408.722 297.338 404.367 295.955C400.002 294.554 401.605 296.931 402.596 298.17C403.586 299.424 404.934 300.122 404.934 300.122L407.858 301.434L409.218 301.856C409.218 301.856 410.393 302.061 414.347 302.963C418.268 303.866 420.454 305.731 420.454 305.731C420.454 305.731 422.562 307.699 425.502 309.84C428.481 311.981 431.415 312.55 433.021 312.768C434.64 312.957 434.572 314.08 434.572 314.08C434.572 314.08 434.792 315.114 434.718 315.462C434.643 315.811 434.287 316.09 433.953 316.09C433.581 316.09 433.448 316.221 433.024 316.438C432.613 316.643 430.916 316.918 430.916 316.918C430.916 316.918 426.496 316.774 423.057 315.958C419.609 315.114 416.604 312.765 416.302 312.608C416.037 312.477 412.792 310.742 410.623 310.042C408.427 309.344 404.998 309.635 404.652 309.766C404.299 309.91 403.101 310.115 401.054 310.669C399.024 311.222 401.559 311.981 401.559 311.981L403.033 312.141L406.543 312.403C406.543 312.403 410.121 312.826 413.223 313.949C416.299 315.04 418.278 317.27 420.308 319.283C422.345 321.296 424.602 322.618 424.602 322.618L426.208 323.651L427.063 324.278L427.27 324.832C427.27 324.832 427.205 325.123 427.063 325.459C426.917 325.824 426.431 326.086 426.431 326.086C426.431 326.086 425.651 325.955 425.291 325.955C424.938 325.955 422.656 324.746 420.959 324.003C419.155 323.216 418.258 322.518 416.374 322.067C414.735 321.674 412.579 321.514 412.112 321.645C411.617 321.776 408.026 322.272 405.273 322.477C402.544 322.694 400.122 322.726 396.884 322.333C392.234 321.779 386.088 318.166 385.307 319.184C383.701 321.267 388.623 321.894 390.974 323.235C394.232 325.085 399.879 326.79 399.879 326.79C399.879 326.79 403.981 327.696 406.394 328.8C411.678 331.219 413.281 334.79 417.517 338.579C419.877 340.707 421.736 341.61 424.887 342.061C427.59 342.438 427.555 342.131 431.842 341.302C436.113 340.458 438.742 336.435 439.983 337.891C440.235 338.198 440.138 338.445 440.051 338.867C439.983 339.274 439.633 340.048 439.633 340.048C439.633 340.048 439.147 340.746 438.377 341.504C437.609 342.262 434.649 343.866 433.115 344.493C431.564 345.12 427.762 346.154 422.996 346.01C418.206 345.878 411.533 342.266 411.533 342.266L406.695 340.256C406.695 340.256 404.457 339.206 402.978 338.653C398.969 337.184 396.434 337.312 392.289 336.221C389.708 335.552 388.069 334.835 385.751 334.355C383.423 333.888 384.725 334.778 384.977 335.13C386.085 336.573 387.509 337.037 389.342 337.898C391.777 339.062 393.484 338.832 396.022 339.837C398.791 340.973 401.216 342.563 402.745 343.523C404.296 344.499 405.426 345.578 406.906 347.136L412.035 351.434C412.035 351.434 413.23 352.41 413.362 352.819C413.508 353.242 414.071 354.275 413.786 355.952C413.508 357.626 412.122 356.448 412.122 356.448L410.762 355.616L409.441 354.362L407.258 352.614C407.258 352.614 405.426 350.954 402.275 349.35C399.115 347.763 395.313 347.341 395.313 347.341C395.313 347.341 391.936 346.845 392.069 347.894C392.221 348.944 392.998 349.018 395.653 349.699C398.321 350.4 400.086 351.709 400.086 351.709C400.086 351.709 402.832 353.734 404.775 355.949C406.766 358.179 407.31 360.32 407.31 360.32C407.31 360.32 408.301 362.128 410.833 364.56C413.356 366.995 414.709 366.163 414.547 367.328C414.415 368.509 413.275 368.726 413.275 368.726C413.275 368.726 412.656 368.656 412.378 368.656C412.112 368.656 411.449 368.307 410.752 368.045C410.063 367.754 407.394 365.946 407.394 365.946C407.394 365.946 403.237 362.624 402.738 362.259C402.265 361.923 398.321 359.008 398.321 359.008C398.321 359.008 396.019 357.552 394.326 356.707C392.655 355.875 390.404 355.046 389.122 354.624C387.849 354.218 385.554 354.07 385.554 354.07C385.554 354.07 382.72 353.664 381.056 353.037C378.355 352.032 375.227 349.19 374.89 349.059C374.554 348.915 372.018 348.083 371.533 348.157C371.047 348.227 369.92 352.877 369.661 355.558C368.511 366.835 371.546 374.31 376.231 384.643C383.057 399.664 401.977 418.33 401.977 418.33C401.977 418.33 406.727 421.011 408.758 422.586C414.424 426.973 423.799 433.165 432.088 441.354C439.186 448.374 448.658 460.854 448.658 460.854C448.658 460.854 454.098 468.387 456.62 473.706C459.732 480.25 462.212 490.186 462.212 490.186C462.212 490.186 462.432 491.917 462.636 492.262C462.827 492.627 463.287 493.066 463.643 493.082L466.95 493.197C467.299 493.197 471.052 492.902 473.523 492.294C476 491.686 481.864 489.043 485.734 487.024C489.597 485.024 494.243 481.136 494.243 481.136C494.243 481.136 495.118 480.403 499.658 475.424C504.194 470.438 507.121 462.963 508.209 460.163C509.271 457.338 510.168 451.962 510.845 442.739C511.541 433.514 510.272 423.75 510.272 423.75C510.272 423.75 508.562 410.141 507.523 405.523C506.496 400.89 504.013 393.373 504.013 393.373C504.013 393.373 502.277 386.64 501.71 382.4C501.179 378.144 501.069 371.254 501.069 371.254C501.069 371.254 501.069 367.027 502.488 359.219C503.886 351.421 508.737 343.584 508.737 343.584C508.737 343.584 510.078 340.963 515.314 334.784C520.621 328.502 522.334 327.485 527.583 323.738C531.734 320.765 537.151 316.029 538.903 317.136C540.853 318.358 536.996 320.765 535.723 322.016C532.446 325.206 526.301 330.902 521.33 339.443C517.01 346.845 515.404 351.741 514.31 356.563C513.235 361.402 513.691 366.675 513.824 368.496C513.976 370.301 514.993 369.648 514.993 369.648C514.993 369.648 525.517 361.299 531.242 354.944C537.466 348.096 542.961 335.901 545.13 335.798C546.571 335.725 547.267 338.989 546.927 340.474C545.541 346.813 545.104 347.613 543.041 351.782C540.626 356.634 538.437 358.79 535.141 363.206C531.63 367.869 529.95 369.661 527.149 375.824C523.108 384.698 525.462 391.546 525.462 391.546C525.462 391.546 525.948 395.712 527.852 395.654C531.031 395.552 537.997 386.867 542.536 379.773C545.881 374.541 547.102 368.525 549.317 365.376C551.289 362.566 553.06 369.936 552.218 374.278C551.231 379.421 548.64 384.042 542.977 391.328C537.43 398.454 537.621 405.229 537.621 405.229C537.621 405.229 537.019 408.333 536.578 415.062C536.135 421.795 538.084 431.997 538.084 431.997C538.084 431.997 539.849 440.522 540.176 447.005C540.5 453.472 540.276 468.266 534.143 479.734C531.708 484.352 526.446 490.736 526.446 490.736C526.446 490.736 522.45 494.813 519.115 497.203C515.803 499.594 507.882 503.277 507.882 503.277C507.882 503.277 502.4 505.171 501.604 505.344C500.833 505.546 500.308 506.211 500.308 506.211C500.308 506.211 500.833 507.261 501.043 507.686C501.238 508.125 502.782 511.856 502.782 511.856C502.782 511.856 504.437 517.174 505.052 521.389C505.671 525.571 504.952 526.528 504.33 529.763C503.741 532.838 502.371 531.414 502.028 537.472C501.717 542.819 504.197 545.488 503.741 551.475C503.54 554.093 500.529 548.202 499.088 545.674C495.998 540.163 496.746 531.786 496.675 529.706C496.588 527.622 496.442 525.334 495.658 522.653C494.671 519.267 493.288 516.586 491.663 514.522C490.044 512.454 488.331 511.286 487.741 511.478C487.184 511.67 487.152 512.774 487.123 513.328C487.097 513.882 488.23 515.862 488.512 516.301C488.761 516.726 490.814 520.41 490.814 520.41C490.814 520.41 491.708 523.222 492.09 528.72C492.44 534.227 490.727 540.97 490.727 540.97C490.727 540.97 488.512 548.637 486.158 553.107C483.548 558.077 477.784 564.838 477.784 564.838C477.784 564.838 473.656 568.582 470.563 574.733C467.464 580.883 470.12 583.578 468.97 584.333C467.795 585.139 465.347 580.806 464.683 577.866C464.074 575.155 464.398 573.875 465.492 570.8C466.567 567.872 469.061 563.632 469.061 563.632L472.804 557.366C472.804 557.366 477.243 548.899 478.642 542.778C480.061 536.643 478.464 529.853 478.464 529.853C478.464 529.853 478.26 527.61 476.725 527.693C475.168 527.779 474.044 529.155 473.422 530.768C472.127 534.138 473.954 533.536 472.004 539.136C470.453 543.549 470.058 542.963 469.242 545.578C468.287 548.723 467.756 551.923 467.817 553.898C467.889 555.85 466.801 555.03 466.801 555.03C466.801 555.03 464.929 551.536 464.929 547.21C464.929 544.848 465.016 543.526 465.301 541.174C465.726 537.398 467.273 531.619 467.273 531.619C467.273 531.619 468.964 525.92 468.598 520.691C468.229 515.472 466.37 514.493 466.37 514.493C466.37 514.493 465.897 513.776 463.838 513.907C461.801 514.038 461.885 517.667 461.885 517.667C461.885 517.667 461.27 522.826 460.46 526.032C458.203 534.918 455.224 539.565 449.882 547.04C445.079 553.802 438.529 559.734 435.271 562.531C432.014 565.344 421.982 572.573 421.982 572.573L410.244 580.294C410.244 580.294 405.588 584.781 403.431 590.128C401.268 595.462 401.401 599.645 402.638 604.554C403.878 609.45 405.688 611.754 406.617 613.094C407.56 614.448 409.376 616.867 409.959 619.667C410.325 621.418 410.059 622.48 410.166 624.269C410.267 625.808 410.477 626.688 410.445 628.214C410.386 630.682 410.843 632.438 409.444 634.451C408.382 635.994 405.549 637.309 405.549 637.309C405.549 637.309 402.379 638.71 400.478 639.846C380.486 651.779 373.378 659.488 362.126 672.79C358.528 677.014 361.171 676.765 357.321 681.795C355.038 684.797 349.685 684.784 347.739 688.381C345.064 693.258 353.83 698.083 343.691 702.4C330.668 707.965 308.208 703.987 307.771 702.253C306.547 697.44 312.152 691.965 314.124 689.808C323.275 679.926 331.442 679.683 334.421 671.52C335.055 669.77 334.826 668.269 342.072 662.963C347.189 659.219 367.598 644.051 376.503 633.91C379.54 630.458 382.196 628.138 383.523 624.378C384.851 620.605 382.196 618.211 382.196 618.211L378.527 612.31L371.52 599.923C371.52 599.923 368.586 593.35 366.954 589.549C365.341 585.76 362.262 575.488 362.262 575.488C362.262 575.488 359.992 566.323 359.626 560.336C358.93 549.555 360.436 543.286 363.295 532.867C367.012 519.274 375.444 513.603 378.809 500.186C379.786 496.294 379.984 489.606 377.999 489.93C376.082 490.253 375.917 495.555 374.502 499.075C369.075 512.394 361.909 518.237 357.975 532.054C355.332 541.379 354.274 546.928 354.299 556.624C354.299 562.157 354.095 561.136 355.54 570.755C356.071 574.307 356.987 576.192 358.043 579.642C358.784 582.093 360.789 586.662 360.789 586.662C360.789 586.662 363.622 592.784 364.564 597.053C364.888 598.49 365.241 599.341 365.153 600.813C364.975 603.363 365.406 603.917 364.166 606.214C362.615 609.059 363.577 610.746 358.619 611.808C354.274 612.714 345.294 609.875 345.294 609.875C345.294 609.875 308.438 598.816 284.914 601.99C280.247 602.614 277.754 604.294 273.043 604.202C268.804 604.141 266.615 600.851 262.367 602.109C261.483 602.371 261.211 602.97 260.45 603.478C254.197 607.776 258.973 614.915 242.556 611.2C232.473 608.912 220.262 602.838 222.386 598.992C225.21 593.907 229.014 593.075 236.977 589.846C245.49 586.406 258.274 587.379 260.783 587.194C263.866 586.992 268.302 584.851 273.787 584.755C283.285 584.598 284.985 585.706 284.985 585.706L301.143 587.104L332.018 587.514C332.018 587.514 337.539 587.075 339.767 586.666C341.972 586.243 343.73 581.942 344.925 579.891C346.114 577.853 344.893 574.822 344.893 574.822L343.957 573.408L341.03 568.717L335.586 559.67L329.564 547.808C329.564 547.808 325.626 539.517 323.512 534.083C321.423 528.688 320.215 525.645 318.816 520.048C317.362 514.278 316.495 509.6 316.31 505.002C316.07 498.371 315.65 493.171 317.521 487.75Z" fill="#231F20"/>
<path d="M518.108 476.733C524.578 468.47 525.216 460.835 525.598 450.022C525.899 442.182 522.884 430.09 522.884 430.09L522.473 429.216C522.473 429.216 521.333 427.76 520.637 429.683C520.747 431.389 520.974 432.758 520.974 432.758L521.356 448.333C521.356 448.333 520.854 456.176 518.16 464.262C513.601 477.901 501.51 484.006 499.742 488.886C496.756 497.075 510.324 486.656 518.108 476.733ZM449.93 501.933C449.93 501.933 447.262 502.672 447.217 505.27C447.149 507.872 447.861 510.138 447.806 513.251C447.731 517.213 444.017 521.853 446.401 523.331C450.516 525.898 454.036 507.798 452.789 505.12C451.536 502.445 450.322 501.901 449.93 501.933ZM404.04 627.411C404.04 627.411 403.289 627.005 401.802 627.555C400.329 628.099 400.416 629.616 400.416 629.616C400.416 629.616 400.131 631.219 401.326 631.408C402.521 631.571 404.496 628.714 404.483 628.368C404.458 628.045 404.04 627.411 404.04 627.411ZM360.902 657.693C360.902 657.693 360.439 658.144 360.837 658.461C361.222 658.755 361.766 658.349 361.766 658.349C361.766 658.349 369.23 652.605 373.637 648.544C378.32 644.211 385.022 636.768 385.022 636.768C385.022 636.768 385.479 636.186 384.955 635.706C384.459 635.238 383.144 635.968 382.095 636.461C381.166 636.928 380.622 637.462 379.945 638.035C379.249 638.605 377.086 640.829 377.086 640.829L371.306 646.378L367.712 649.715L364.189 653.053L362.693 654.726C362.693 654.726 362.298 655.363 362.21 655.526C362.11 655.69 361.711 656.195 361.711 656.195C361.711 656.195 361.193 656.707 361.193 656.838C361.193 656.97 361.015 657.146 361.002 657.306C361.002 657.475 360.902 657.693 360.902 657.693ZM347.995 666.058C347.995 666.058 347.172 665.402 345.919 666.058C344.647 666.698 343.293 668.432 343.186 668.627C343.083 668.816 342.37 669.76 342.85 670.56C343.322 671.36 344.938 670.182 345.165 670.138C345.398 670.106 347.506 668.486 347.506 668.486C347.506 668.486 348.727 667.731 347.995 666.058ZM323.317 690.768C323.317 690.768 322.278 688.803 320.892 689.619C319.483 690.419 318.745 690.698 317.479 692.416C317.265 692.739 315.896 694.483 315.637 694.922C315.394 695.376 314.053 697.923 316.802 698.08C321.572 698.39 318.46 695.344 320.092 694.173C321.42 693.261 323.897 693.488 323.926 692.525C323.965 691.584 323.317 690.768 323.317 690.768ZM238.8 592.138C238.8 592.138 235.924 592.81 235.717 593.811C235.503 594.813 237.391 595.792 237.692 595.837C238.01 595.898 238.674 596.624 240.561 595.357C242.449 594.09 242.375 593.002 242.375 593.002C242.375 593.002 243.489 591.728 238.8 592.138ZM285.296 590.637C285.296 590.637 285.266 589.603 283.233 589.718C281.19 589.834 280.74 590.211 280.698 590.506C280.636 590.826 280.785 591.338 282.627 591.482C284.486 591.629 285.237 591.469 285.296 590.637ZM329.22 591.907C325.532 591.859 326.714 591.978 324.434 592.096C320.299 592.314 318.042 592.144 313.972 591.882C308.26 591.523 299.41 590.09 299.41 590.09C299.41 590.09 298.297 589.856 297.856 590.541C297.438 591.274 298.935 592.771 300.275 593.194C307.506 595.421 307.885 595.014 312.836 595.104C315.585 595.149 317.126 594.874 319.853 594.694C323.311 594.461 324.94 594.986 328.699 593.994C329.687 593.741 330.645 591.92 329.22 591.907ZM354.002 584.618C354.002 584.618 353.257 583.786 351.738 584.515C350.206 585.254 349.29 586.906 349.29 586.906C349.29 586.906 348.581 588 350.087 587.824C351.599 587.648 352.907 587.005 353.292 586.774C353.675 586.576 354.769 585.536 354.002 584.618ZM332.436 290.966C332.436 290.966 342.921 281.261 350.385 268.467C354.837 260.848 356.773 243.085 352.952 247.53C351.22 249.526 349.151 258.765 345.845 265.568C341.137 275.27 331.069 289.027 331.069 289.027C331.069 289.027 328.903 293.619 332.436 290.966ZM290.658 315.549C290.658 315.549 289.544 316.381 290.039 317.779C290.558 319.178 292.717 318.112 292.717 318.112C292.717 318.112 297.516 316.32 302.587 316.115C307.681 315.91 314.717 317.411 314.717 317.411C314.717 317.411 318.072 318.33 318.638 318.534C319.198 318.736 321.028 319.626 321.316 319.731C321.617 319.834 323.337 320.691 324.315 319.818C325.318 318.944 318.217 312.592 310.987 311.629C298.957 310.01 291.03 315.11 291.03 315.11L290.658 315.549ZM241.034 357.469C241.905 358.166 245.937 350.605 249.307 345.827C251.768 342.301 256.266 336.429 256.266 336.429C256.266 336.429 258.27 333.731 254.851 335.248C253.442 335.859 249.625 338.73 246.934 344.019C244.638 348.509 240.17 356.739 241.034 357.469ZM213.219 324.554C213.219 324.554 212.358 327.453 215.838 331.139C219.326 334.81 220.223 337.856 222.451 335.658C223.069 335.075 220.278 330.093 218.853 328.723C217.422 327.37 216.376 326.218 216.376 326.218L215.486 325.488L214.313 324.861L213.666 324.598C213.659 324.598 213.462 324.422 213.219 324.554ZM201.954 296.432C201.954 296.432 198.194 297.133 197.255 298.925C196.326 300.73 201.591 299.638 201.591 299.638C201.591 299.638 205.094 299.84 205.172 298.515C205.263 297.19 204.719 297.027 201.954 296.432ZM142.12 394.422C140.219 393.853 139.886 397.6 139.643 398.794C139.406 400.003 140.491 402.435 140.925 402.406C141.382 402.394 142.91 400.032 142.998 398.867C143.085 397.699 143.83 394.931 142.12 394.422ZM204.253 467.395C204.253 467.395 200.823 464.714 200.296 465.782C199.787 466.826 203.132 471.568 203.132 471.568C203.132 471.568 204.142 473.107 205.726 472.397C207.296 471.683 206.73 469.978 206.73 469.978C206.73 469.978 205.671 467.76 204.253 467.395ZM178.325 388.448C178.325 388.448 177.454 388.243 177.117 389.277C176.8 390.31 176.839 392.032 176.609 394.07C176.408 395.686 177.03 399.971 177.03 399.971C177.03 399.971 177.363 403.354 178.04 405.421C178.785 407.622 180.776 410.755 180.776 410.755C180.776 410.755 181.528 412.387 182.434 412.314C183.341 412.227 183.134 411.149 183.134 411.149C183.134 411.149 180.258 399.856 180.155 398.704C179.808 394.96 179.837 390.371 179.837 390.371L179.808 389.67C179.808 389.67 179.779 388.493 178.325 388.448ZM182.829 354C182.829 354 181.23 353.68 179.779 356.71C178.312 359.757 178.613 360.979 178.74 361.123C178.856 361.27 180.035 361.226 181.894 358.413C183.73 355.613 183.325 354.566 183.325 354.566C183.325 354.566 183.221 354 182.829 354ZM226.398 385.229C226.398 385.229 228.331 388.042 224.649 387.398C220.977 386.742 213.258 380.739 210.133 379.123C207.031 377.507 201.934 376.966 204.081 375.101C204.457 374.768 204.554 374.461 205.188 374.432C205.823 374.403 207.915 375.232 208.054 375.293C208.174 375.363 213.604 377.565 213.805 377.638C214.006 377.725 217.037 379.008 219.209 380.262C221.385 381.53 224.902 383.962 224.902 383.962L226.398 385.229ZM328.013 471.664C329.01 474.797 316.446 465.107 309.714 459.984C291.866 446.419 270.022 418.586 272.748 416.138C275.018 414.099 283.968 426.848 297.092 440.88C311.1 455.853 327.423 469.811 328.013 471.664ZM380.463 458.355C376.587 462.467 375.201 467.728 377.439 471.661C379.654 475.475 380.33 466.08 382.772 463.28C384.857 460.893 386.136 461.254 389.614 458.835C395.52 454.72 385.401 453.133 380.463 458.355ZM358.127 370.541C355.478 370.102 355.566 374.109 355.944 376.979C357.716 389.744 363.509 399.581 371.251 408.861C375.969 414.483 388.889 424.538 390.407 422.934C390.951 422.352 378.093 412.56 369.926 399.955C364.134 391.021 361.022 383.43 360.309 376.058C360.219 375.142 360.442 370.906 358.127 370.541ZM308.131 181.274C302.299 184.406 292.199 187.146 292.199 187.146C292.199 187.146 291.733 188.122 293.031 188.019C301.68 187.35 304.974 186.256 309.598 184.259C314.196 182.278 317.566 176.813 317.566 176.813C317.566 176.813 319.425 173.446 315.938 176.23C314.876 177.078 311.314 179.542 308.131 181.274ZM378.388 159.331C378.388 159.331 376.409 158.893 375.082 159.712C373.76 160.541 374.139 161.213 374.139 161.213C374.139 161.213 376.176 162.787 377.649 163.021C379.123 163.238 382.28 164.595 382.134 163.546C382.014 162.483 380.243 160.544 379.654 160.019C379.035 159.491 378.388 159.331 378.388 159.331ZM345.314 219.293C345.66 219.978 351.57 218.39 353.827 217.136C355.627 216.144 356.304 212.838 356.304 212.838C356.304 212.838 356.806 209.619 356.038 210.854C352.655 216.291 344.983 218.592 345.314 219.293ZM345.123 204.314C347.506 199.811 338.569 209.021 334.019 211.411C331.241 212.867 326.73 214.778 326.73 214.778C326.73 214.778 325.535 216.25 327.203 216.131C328.877 216 333.132 217.443 336.545 214.79C337.348 214.179 340.952 209.021 340.952 209.021C340.952 209.021 343.973 206.483 345.123 204.314ZM343.743 223.574C343.915 224.317 353.956 224.054 356.462 223.341C358.422 222.774 359.487 219.306 359.487 219.306C359.487 219.306 360.695 216.291 359.681 217.325C355.148 221.885 343.578 222.819 343.743 223.574ZM182.991 314.163C182.991 314.163 181.466 313.626 179.578 316.435C177.707 319.219 169.288 331.837 170.79 333.715C172.558 335.917 179.85 322.422 182.068 319.888C184.303 317.366 183.412 314.774 183.412 314.774C183.412 314.774 183.383 314.208 182.991 314.163ZM366.475 542.246C365.591 546.445 366.682 555.005 368.126 556.701C371.698 560.957 369.512 550.058 370.011 546.237C370.441 542.653 370.914 541.43 372.666 537.613C375.852 530.762 368.359 533.299 366.475 542.246ZM335.761 176.742C335.761 176.742 332.983 176.803 330.807 177.981C328.634 179.178 328.058 180.822 328.058 180.822C328.058 180.822 327.624 182.019 327.925 182.688C328.56 184.147 331.545 181.946 333.66 182.675C335.37 183.274 336.182 183.754 337.465 185.296C338.601 186.653 340.606 188.576 341.859 187.482C343.112 186.39 342.662 183.664 342.662 183.664C342.662 183.664 341.179 179.203 339.249 177.923C337.316 176.656 335.761 176.742 335.761 176.742ZM289.618 208.173C289.618 208.173 288.077 208.422 288.44 210.272C288.809 212.125 289.816 211.83 289.816 211.83C289.816 211.83 293.031 210.477 292.818 208.566C292.627 206.63 289.618 208.173 289.618 208.173ZM267.088 198.192C267.088 198.192 265.401 198.253 264.219 200.32C263.034 202.387 262.347 204.518 262.347 204.518C262.347 204.518 261.781 207.242 262.775 208.086C263.772 208.947 264.841 206.323 266.262 205.334C267.123 204.723 267.648 204.432 268.526 203.834C269.737 203.005 271.696 204.067 271.55 201.648C271.394 199.229 268.785 198.077 267.088 198.192ZM339.88 172.285C339.88 172.285 336.046 171.747 336.195 173.203C336.322 174.544 338.281 173.741 339.534 174.298C340.758 174.822 341.538 175.04 342.516 175.942C343.235 176.57 343.147 177.808 344.031 177.821C345.252 177.837 344.993 177.354 344.993 177.354C344.993 177.354 343.899 174.09 342.458 173.142C341.033 172.227 339.88 172.285 339.88 172.285ZM382.665 187.555C382.102 189.61 381.768 190.339 381.768 190.339C381.768 190.339 380.687 194.522 384.98 192.976C389.255 191.402 387.066 192.074 390.122 190.602C393.176 189.13 393.076 189.933 395.316 190.032C396.077 190.061 396.557 190.106 397.703 189.872C398.661 189.683 398.263 188.534 396.113 187.965C393.795 187.354 390.919 187.514 387.619 187.469C385.699 187.453 383.222 185.517 382.665 187.555ZM384.55 172.051C384.55 172.051 382.578 171.629 381.247 172.445C379.906 173.277 380.305 173.93 380.305 173.93C380.305 173.93 382.354 175.52 383.815 175.738C385.288 175.984 388.445 177.325 388.325 176.262C388.18 175.2 386.408 173.277 385.822 172.736C385.227 172.227 384.55 172.051 384.55 172.051ZM392.101 201.136C392.101 201.136 389.99 200.73 388.559 201.53C387.118 202.317 387.542 202.928 387.542 202.928C387.542 202.928 389.744 204.413 391.304 204.634C392.865 204.838 396.255 206.106 396.123 205.101C395.99 204.109 394.105 202.288 393.455 201.776C392.81 201.28 392.101 201.136 392.101 201.136ZM392.719 211.699C392.719 211.699 390.492 211.219 388.976 212.122C387.471 213.008 387.927 213.738 387.927 213.738C387.927 213.738 390.242 215.443 391.894 215.706C393.568 215.952 397.117 217.395 396.965 216.243C396.819 215.107 394.847 213.008 394.164 212.426C393.487 211.862 392.719 211.699 392.719 211.699ZM393.739 221.987C393.739 221.987 391.317 221.45 389.685 222.454C388.047 223.475 388.536 224.275 388.536 224.275C388.536 224.275 391.052 226.211 392.836 226.49C394.643 226.765 398.503 228.426 398.35 227.146C398.192 225.85 396.022 223.475 395.287 222.819C394.549 222.176 393.739 221.987 393.739 221.987ZM393.487 234.707C393.487 234.707 391.084 234.17 389.433 235.187C387.794 236.192 388.293 237.008 388.293 237.008C388.293 237.008 390.803 238.931 392.6 239.21C394.403 239.501 398.292 241.146 398.114 239.85C397.949 238.554 395.786 236.192 395.048 235.536C394.313 234.896 393.487 234.707 393.487 234.707ZM391.735 259.494C391.735 259.494 389.313 258.957 387.674 259.974C386.042 260.979 386.528 261.795 386.528 261.795C386.528 261.795 389.031 263.734 390.828 264.01C392.632 264.301 396.521 265.933 396.343 264.65C396.184 263.354 394.015 260.979 393.276 260.32C392.545 259.683 391.735 259.494 391.735 259.494ZM393.364 247.078C393.364 247.078 390.582 246.467 388.678 247.632C386.794 248.797 387.364 249.731 387.364 249.731C387.364 249.731 390.271 251.974 392.334 252.294C394.416 252.614 398.911 254.525 398.703 253.037C398.525 251.536 396.022 248.797 395.167 248.051C394.313 247.296 393.364 247.078 393.364 247.078ZM390.537 270.685C390.537 270.685 388.559 270.234 387.205 271.078C385.845 271.907 386.263 272.579 386.263 272.579C386.263 272.579 388.325 274.17 389.818 274.4C391.291 274.634 394.474 276.003 394.338 274.925C394.206 273.859 392.422 271.907 391.822 271.37C391.214 270.829 390.537 270.685 390.537 270.685ZM388.665 281.437C388.665 281.437 387.027 281.072 385.907 281.773C384.783 282.458 385.11 283.011 385.11 283.011C385.11 283.011 386.833 284.339 388.053 284.528C389.284 284.717 391.929 285.84 391.816 284.966C391.712 284.077 390.239 282.461 389.731 282.01C389.222 281.568 388.665 281.437 388.665 281.437ZM386.35 291.229C386.35 291.229 384.857 290.893 383.841 291.52C382.84 292.131 383.131 292.643 383.131 292.643C383.131 292.643 384.67 293.84 385.787 294C386.894 294.189 389.284 295.194 389.196 294.406C389.09 293.606 387.762 292.134 387.305 291.754C386.852 291.344 386.35 291.229 386.35 291.229ZM383.993 299.258C383.993 299.258 382.487 298.925 381.483 299.533C380.483 300.16 380.774 300.669 380.774 300.669C380.774 300.669 382.325 301.85 383.429 302.022C384.55 302.211 386.926 303.219 386.82 302.416C386.719 301.629 385.392 300.157 384.935 299.763C384.491 299.376 383.993 299.258 383.993 299.258ZM381.159 308.57C381.159 308.57 379.952 308.294 379.155 308.803C378.326 309.315 378.579 309.722 378.579 309.722C378.579 309.722 379.832 310.669 380.716 310.829C381.613 310.96 383.549 311.776 383.462 311.133C383.374 310.493 382.299 309.312 381.924 308.992C381.571 308.669 381.159 308.57 381.159 308.57ZM377.769 317.296C377.769 317.296 376.739 317.078 376.043 317.501C375.334 317.923 375.545 318.288 375.545 318.288C375.545 318.288 376.62 319.104 377.384 319.222C378.148 319.354 379.819 320.054 379.761 319.498C379.686 318.96 378.744 317.923 378.446 317.648C378.122 317.37 377.769 317.296 377.769 317.296ZM374.272 325.574C374.272 325.574 373.229 325.357 372.546 325.792C371.824 326.214 372.047 326.563 372.047 326.563C372.047 326.563 373.142 327.395 373.906 327.51C374.67 327.642 376.322 328.355 376.267 327.789C376.179 327.235 375.256 326.214 374.939 325.936C374.622 325.658 374.272 325.574 374.272 325.574ZM147.508 367.728C147.508 367.728 145.76 371.078 146.618 372.915C147.482 374.752 149.84 369.984 149.84 369.984C149.84 369.984 152.278 365.219 151.284 364.346C150.274 363.459 149.697 365.936 147.508 367.728Z" fill="white"/>
<path d="M280.468 662.662C280.468 662.662 279.156 660.989 277.916 662.205C276.676 663.434 275.063 665.386 272.194 665.197C269.312 664.982 268.075 664.541 266.453 663.856C264.854 663.155 262.606 662.109 262.606 662.109C262.606 662.109 256.752 659.878 251.785 659.763C246.83 659.632 238.722 661.677 234.798 665.882C230.87 670.064 229.872 674.422 229.872 674.422C229.872 674.422 228.561 682.077 230.811 685.568C233.059 689.094 235.507 692.867 240.956 696.173C246.426 699.478 248.805 700.704 248.805 700.704L258.293 705.018L267.062 708.285C267.062 708.285 279.736 712.029 281.274 721.501C282.809 730.976 277.058 743.226 259.562 744.352C242.349 745.462 233.965 737.2 231.284 731.907C228.606 726.589 230.148 722.102 230.148 722.102L230.87 720.646L231.546 720.314C231.546 720.314 234.224 722.106 236.847 721.766C239.464 721.434 244.279 718.314 243.281 713.229C242.271 708.128 237.65 707.008 235.429 707.194C233.224 707.389 223.361 709.907 223.169 724.08C222.969 738.246 236.034 745.792 236.034 745.792C236.034 745.792 245.286 751.485 255.732 751.037C266.184 750.57 274.833 746.461 274.833 746.461C274.833 746.461 290.308 738.854 290.719 722.23C291.111 705.622 280.464 699.773 280.464 699.773C280.464 699.773 276.647 697.136 273.159 695.536C269.672 693.962 261.305 689.971 261.305 689.971L252.792 686.138L247.63 683.296L244.738 681.373C244.738 681.373 237.848 676.006 241.523 670.179C245.211 664.355 255.871 666.534 255.871 666.534C255.871 666.534 264.112 668.253 270.543 672.829C276.98 677.392 280.74 682.886 280.74 682.886L283.408 687.203L283.738 687.802L286.024 687.014C286.024 687.014 282.469 677.213 281.792 673.098C281.131 669.002 280.468 662.662 280.468 662.662Z" fill="#231F20"/>
<path d="M382.487 718.72C382.487 718.72 384.789 721.238 387.849 721.238C390.948 721.238 395.339 719.114 395.281 713.616C395.222 708.125 389.595 706.653 389.595 706.653C389.595 706.653 381.082 704.672 376.94 713.226C372.786 721.763 375.056 729.178 375.056 729.178C375.056 729.178 377.005 740.707 389.329 747.523C401.653 754.336 414.868 749.315 414.868 749.315C414.868 749.315 424.773 746.061 433.354 736.522C441.935 726.992 446.022 715.667 446.022 715.667L449.027 708.256L452.644 708.323C452.644 708.323 457.685 708.79 461.218 705.936C464.793 703.075 466.998 699.178 466.998 699.178L467.461 697.997L465.172 696.947C465.172 696.947 462.578 700.314 458.948 700.65C455.338 700.97 451.582 700.371 451.582 700.371L455.059 691.162C455.059 691.162 459.081 683.149 460.234 681.293C461.374 679.446 466.059 673.488 466.059 673.488C466.059 673.488 475.705 673.43 485.018 671.507C494.341 669.584 500.088 667.27 500.088 667.27L511.619 662.56L514.433 661.043L513.565 658.784C513.565 658.784 503.181 662.429 487.819 664.163C472.49 665.882 462.844 664.032 462.844 664.032L445.413 661.366C445.413 661.366 440.115 660.518 436.035 660.451C431.955 660.387 423.621 661.891 423.621 661.891C423.621 661.891 415.334 663.754 411.591 666.538C407.815 669.322 398.911 675.818 403.01 685.744C407.084 695.68 423.773 690.374 426.133 683.018C426.049 683.085 427.063 680.643 427.063 680.643L427.341 679.315L425.916 678.778L424.242 680.701C424.242 680.701 418.019 685.875 413.187 682.55C408.385 679.245 411.649 674.624 412.125 674.083C412.585 673.565 415.192 670.445 421.428 669.062C427.665 667.68 437.042 669.923 437.042 669.923L447.23 671.773C447.23 671.773 452.857 672.835 453.11 672.835C453.388 672.835 455.202 673.098 455.202 673.098L451.643 677.005C451.643 677.005 446.482 681.901 442.858 688.998C439.248 696.08 437.577 699.779 437.577 699.779L437.224 700.317C437.224 700.317 432.687 700.842 429.812 702.56C426.92 704.282 425.049 706.931 425.049 706.931L423.702 709.322L425.508 710.838C425.508 710.838 427.59 708.518 430.139 707.866C432.687 707.194 434.627 708.198 434.627 708.198C434.627 708.198 430.935 717.194 429.197 720.438C427.458 723.683 424.508 729.648 420.353 734.08C416.212 738.509 413.187 742.368 403.677 743.693C394.164 745.005 387.454 738.973 384.984 736.003C382.49 733.03 381.03 728.515 380.897 725.222C380.748 721.894 382.487 718.72 382.487 718.72Z" fill="#231F20"/>
</svg>
