<svg width="38" height="30" viewBox="0 0 38 30" fill="none" xmlns="http://www.w3.org/2000/svg">
<path fill-rule="evenodd" clip-rule="evenodd" d="M29.0232 20.8842C27.0036 24.2839 23.2635 26.6002 19.0371 26.6002C15.8955 26.6002 13.053 25.33 10.9585 23.3126H14.2124C14.2124 23.3126 23.5627 6.87422 23.6001 6.7995C23.6375 6.72478 23.6375 6.68742 23.5627 6.68742H19.7104C19.6356 6.68742 19.6356 6.72478 19.5982 6.72478C19.5608 6.76214 14.3246 15.878 14.3246 15.878H7.48021C7.44281 15.5791 7.44281 15.3176 7.44281 15.0187C7.44281 8.63014 12.6416 3.43711 19.0371 3.43711C22.291 3.43711 25.2457 4.78207 27.3776 6.9863C26.4799 8.51806 22.3658 15.5044 21.8048 16.5131C21.4682 15.7659 20.0096 15.9153 19.2615 15.9153C18.9249 16.4757 17.3915 19.3898 17.3915 19.3898H19.0371C19.7852 19.3898 19.86 20.1743 19.5608 20.66C19.2615 21.1457 18.0273 23.3126 18.0273 23.3126H21.9544C21.9544 23.3126 26.7792 14.8692 29.5468 10.0872C29.9209 10.8717 30.2201 11.731 30.4071 12.5903C31.3421 11.9552 32.4641 11.5816 33.6984 11.5816C32.0901 4.93151 26.1433 0 19.0371 0C10.7341 0 4.00191 6.72478 4.00191 15.0187C4.00191 15.3176 4.00191 15.6164 4.03931 15.878H2.05706C1.94486 15.878 1.90745 15.9527 1.83265 16.0274C1.79525 16.1021 0.0748021 19.1656 0 19.2403C0 19.3151 0 19.3524 0.0748021 19.3524H4.63773C6.50778 25.5168 12.2301 30 19.0371 30C24.4603 30 29.1728 27.1606 31.8283 22.8643C30.7063 22.528 29.7338 21.8182 29.0232 20.8842ZM8.26563 19.3524H12.2675L10.3227 22.6775C9.49987 21.7061 8.78925 20.5853 8.26563 19.3524Z" fill="#DA291C"/>
<path d="M31.6787 19.0909C32.7259 19.0909 33.9228 18.5679 34.97 17.6339C34.97 17.6339 34.8204 18.3811 34.783 18.6052C34.7456 18.8294 34.8952 19.0162 35.1196 19.0162H35.1944C35.4188 19.0162 35.6058 18.8294 35.6432 18.6052L36.0172 16.5131C36.0546 16.2889 35.905 16.1021 35.6806 16.1021H33.5862C33.3617 16.1021 33.1373 16.2142 33.0999 16.4384V16.5504C33.0625 16.7746 33.2121 16.924 33.4365 16.924H34.5212L34.4838 16.9614C33.7358 17.6712 32.8007 18.0448 32.0527 18.0448C31.3047 18.0448 30.4445 17.5592 30.4445 16.4757C30.4445 14.2341 32.5389 12.9265 33.661 12.9265C31.9031 12.9265 30.3697 13.9726 29.659 15.5044C29.5094 15.9527 29.3972 16.3636 29.3972 16.7746C29.3972 18.792 31.0055 19.0909 31.6787 19.0909Z" fill="white"/>
<path d="M33.6236 12.9639C32.5015 12.9639 30.4071 14.2715 30.4071 16.5131C30.4071 17.5965 31.2673 18.0822 32.0153 18.0822C32.7633 18.0822 33.6984 17.7086 34.4464 16.9988L34.4838 16.9614H33.3992C33.1747 16.9614 33.0251 16.812 33.0625 16.5878V16.4757C33.0999 16.2516 33.3243 16.1395 33.5488 16.1395H35.6432C35.8676 16.1395 36.0172 16.3263 35.9798 16.5504L35.6058 18.6426C35.5684 18.8667 35.4188 19.0535 35.157 19.0535H35.0822C34.8578 19.0535 34.7082 18.8667 34.7456 18.6426C34.783 18.4184 34.9326 17.6712 34.9326 17.6712C33.9228 18.6052 32.6885 19.1283 31.6413 19.1283C30.9681 19.1283 29.3598 18.8294 29.3598 16.8493C29.3598 16.4384 29.4346 16.0274 29.6216 15.5791V15.6164C29.5842 15.6912 29.5468 15.8032 29.5094 15.878C29.472 15.9527 29.472 15.99 29.4346 16.0648C29.3972 16.1395 29.3972 16.2516 29.3598 16.3263C29.3598 16.401 29.3224 16.4384 29.3224 16.5131C29.285 16.6252 29.285 16.6999 29.285 16.812C29.285 16.8493 29.285 16.924 29.2476 16.9614C29.2476 17.1108 29.2102 17.2603 29.2102 17.4471C29.2102 17.5965 29.2102 17.746 29.2476 17.8954C29.3972 19.2403 30.1079 20.3985 31.1551 21.1083C31.4917 21.3325 31.9031 21.5193 32.3145 21.6687C32.7259 21.7808 33.1747 21.8555 33.6236 21.8555C34.3716 21.8555 35.0822 21.6687 35.718 21.3325C36.466 20.9215 37.1019 20.3238 37.4759 19.5766C37.8125 18.9415 37.9995 18.2316 37.9995 17.4844C38.0369 14.944 36.0546 12.9639 33.6236 12.9639Z" fill="#DA291C"/>
</svg>
