<svg width="1380" height="522" viewBox="0 0 1380 522" fill="none" xmlns="http://www.w3.org/2000/svg">
<path d="M644.238 517.357C645.693 517.633 647.148 517.889 648.598 518.144L644.238 517.357ZM656.13 519.322C657.824 519.573 659.517 519.796 661.215 520.018L656.13 519.322ZM668.704 520.819C670.359 520.969 672.004 521.109 673.658 521.234L668.704 520.819ZM675.429 521.355C676.826 521.456 678.222 521.538 679.619 521.611L675.429 521.355ZM681.653 521.717C683.307 521.789 684.962 521.852 686.616 521.905L681.653 521.717ZM688.261 521.925C691.957 522.022 695.655 522.025 699.351 521.934L688.261 521.925ZM701.117 521.905C702.84 521.854 704.563 521.788 706.285 521.707L701.117 521.905ZM707.91 521.63C709.404 521.548 710.874 521.456 712.358 521.355L707.91 521.63ZM713.9 521.249C715.516 521.128 717.136 520.993 718.742 520.843L713.9 521.249ZM727.029 519.926C728.275 519.781 729.511 519.622 730.742 519.429L727.029 519.926ZM954.064 105.613C952.725 104.897 951.351 104.246 949.948 103.663L954.064 105.613ZM940.575 100.8C938.854 100.45 937.117 100.186 935.369 100.008L940.575 100.8ZM57.4213 278.434C51.4322 272.981 46.8812 266.155 44.1662 258.553C41.957 252.205 39.0958 244.273 39.0958 237.538C39.2369 207.171 57.1002 184.615 76.3308 174.173C85.0702 169.432 88.3159 166.178 89.6492 164.508C89.0093 164.227 88.3269 164.054 87.6298 163.996C61.4553 163.996 48.0347 153.906 41.4461 145.365C35.2029 137.366 32.0157 127.053 32.0157 115.776C32.0157 110.296 32.7943 104.561 34.3271 98.6949C41.704 86.606 48.7111 89.9276 53.0029 96.112C55.7377 99.9839 74.4768 113.164 97.5662 115.254C114.369 116.838 123.424 124.992 128.135 131.505C133.565 139.046 135.648 148.132 135.648 155.861C135.648 159.023 135.288 161.992 134.602 164.633C132.071 174.82 121.254 184.002 106.189 195.7L97.6441 202.729C85.1335 213.592 78.248 225.681 78.248 235.925C78.248 238.484 78.7006 240.98 79.5716 243.283C79.9317 244.229 80.3648 245.142 80.8757 246.006C86.4668 255.396 102.267 261.286 125.186 253.33C135.779 249.685 156.173 236.949 168.625 224.701C183.277 210.198 202.833 206.717 221.665 205.24C237.996 204.018 248.049 200.045 255.129 192.147C276.053 168.756 296.189 165.468 315.035 164.078C322.246 163.527 322.636 163.016 323.575 161.756C333.964 148.03 344.635 140.764 354.211 136.535C361.511 133.315 368.177 131.847 373.637 130.66L380.264 129.042L381.919 128.463C392.41 125.113 400.531 122.337 421.874 108.027L422.784 107.457L423.684 106.892L424.594 106.361L425.509 105.845L426.429 105.367L427.353 104.894L428.283 104.45L429.227 104.025L430.171 103.629L431.115 103.243L431.163 103.233L432.073 102.895L432.117 102.871L433.017 102.552L433.976 102.234L434.039 102.219L434.934 101.934L434.993 101.92L435.903 101.659L435.966 101.645L436.866 101.398L436.934 101.379L437.839 101.167L437.922 101.147L438.813 100.945L438.886 100.925L439.796 100.742L439.873 100.723L440.774 100.558L440.856 100.544L441.757 100.394L441.839 100.385L442.73 100.254L442.822 100.235L443.718 100.134L443.81 100.114L444.691 100.018L444.788 100.013L445.679 99.9308L445.781 99.9211L446.666 99.8584L446.769 99.8487L447.64 99.7956L447.742 99.7908L448.623 99.7522L449.606 99.7232H449.708L450.584 99.7135H451.674L452.54 99.7232L452.642 99.728H452.744C453.367 99.7425 453.99 99.7811 454.613 99.8149L455.469 99.868L455.591 99.8777L456.433 99.9404L456.559 99.9501L457.401 100.032L457.532 100.047L458.369 100.129L458.506 100.138L459.338 100.24L459.469 100.259L460.296 100.36L460.437 100.385L461.255 100.505L461.391 100.529L462.213 100.655L462.359 100.684L463.162 100.824L463.313 100.848L464.111 100.993L464.257 101.027C465.532 101.263 466.788 101.543 468.019 101.843L468.792 102.036L468.948 102.079C470.189 102.398 471.415 102.736 472.622 103.093L473.337 103.315L473.512 103.368C475.907 104.116 478.228 104.961 480.476 105.855L481.108 106.115L481.936 106.453C527.579 44.9324 599.743 3.99742 681.76 0.294496C685.798 0.114381 689.839 0.00331946 693.881 0C696.553 0.00174457 699.225 0.0419805 701.896 0.120695C703.224 0.164145 704.553 0.217251 705.876 0.270357C707.19 0.333119 708.533 0.39588 709.852 0.477953C789.217 5.2092 859.113 44.8648 904.129 104.155C910.557 101.939 917.559 100.331 924.707 99.8487L924.897 99.8391L925.573 99.7956L926.279 99.7618L926.449 99.7522L926.634 99.7473L927.325 99.728L927.51 99.7184L928.201 99.7135L928.386 99.7087L929.092 99.7039H929.262L929.967 99.7087H930.143L931.014 99.7232L931.724 99.7522L931.88 99.757L932.59 99.7908L932.756 99.8004L933.471 99.8487L933.607 99.8584L934.332 99.9163L934.473 99.926L935.203 99.9984L935.369 100.008C937.117 100.186 938.854 100.45 940.575 100.8L941.305 100.959L942.162 101.162L942.269 101.181L943.028 101.374L943.13 101.398L943.899 101.601L943.982 101.625L944.77 101.843L944.843 101.867L945.612 102.103L945.699 102.127L946.483 102.383L946.551 102.403L947.398 102.697L948.191 102.977L948.24 103.001L949.028 103.305L949.879 103.643L949.948 103.663C951.351 104.246 952.725 104.897 954.064 105.613L954.872 106.057L955.685 106.526L956.502 107.013L957.305 107.515L958.108 108.032C972.813 117.948 981.309 122.317 988.56 125.171C991.82 126.46 994.847 127.43 998.058 128.468L999.747 129.047L1006.44 130.665C1010.07 131.456 1014.22 132.369 1018.71 133.827C1029.95 137.457 1043.37 144.506 1056.4 161.761C1057.34 163.021 1057.76 163.532 1065.01 164.083C1083.83 165.478 1103.93 168.761 1124.95 192.152C1131.97 200.05 1141.98 204.018 1158.3 205.245C1177.25 206.722 1196.74 210.198 1211.36 224.705C1223.83 236.954 1244.2 249.689 1254.82 253.334C1277.73 261.291 1293.61 255.401 1299.07 246.011C1300.26 244.031 1301.07 241.854 1301.48 239.551C1301.69 238.356 1301.8 237.144 1301.8 235.93C1301.8 225.686 1294.91 213.597 1282.43 202.734L1280.88 201.455L1273.8 195.705C1258.8 184.007 1247.97 174.825 1245.37 164.638C1244.68 161.997 1244.38 159.028 1244.38 155.866C1244.38 148.132 1246.51 139.051 1251.84 131.509C1256.58 124.997 1265.73 116.843 1282.43 115.259C1305.64 113.169 1324.28 99.9887 1327 96.1168C1331.37 89.9324 1338.31 86.6109 1345.65 98.6997C1347.21 104.565 1347.99 110.301 1347.99 115.78C1347.99 127.121 1344.8 137.37 1338.56 145.37C1331.93 153.911 1318.56 164.001 1292.34 164.001C1291.78 164.001 1291.01 164.256 1290.36 164.512C1291.66 166.188 1294.91 169.442 1303.67 174.178C1322.9 184.625 1340.78 207.181 1340.94 237.543C1340.94 244.277 1338.11 252.205 1335.83 258.558C1333.45 265.222 1329.66 271.308 1324.74 276.416C1324.07 277.102 1323.37 277.778 1322.64 278.439C1311.81 288.423 1293.76 296.258 1263.7 294.477C1260.53 294.285 1257.38 294.002 1254.23 293.627C1253.45 308.676 1249.29 326.563 1243.43 335.586C1241.65 338.42 1241.3 340.322 1241.3 341.254C1241.3 341.645 1241.34 341.872 1241.34 342.036C1241.53 342.098 1254.68 349.799 1254.68 349.799L1256.8 350.866C1256.8 350.866 1258.04 351.445 1258.2 351.575C1258.39 351.508 1262.78 351.315 1262.78 351.315L1263.6 351.194L1263.72 351.184C1271.94 350.407 1284.47 346.414 1289.81 361.207C1291.21 365.132 1292.06 368.55 1292.86 371.577C1294.49 377.766 1295.89 382.362 1301.35 386.538C1301.35 386.538 1304.05 384.24 1307.12 381.537C1309.48 379.462 1311.81 377.336 1314.08 375.159C1317.88 371.292 1324.93 373.257 1330 375.159C1335.13 377.09 1341.49 381.479 1345.98 384.018C1350.5 386.534 1352.99 389.725 1354.29 393.534C1355.65 397.333 1358.79 399.849 1363.58 402.364C1368.2 404.971 1374.83 413.323 1374.83 424.596C1374.83 426.324 1375.02 427.802 1375.51 429.371C1375.85 430.409 1376.31 431.49 1376.93 432.721C1383.4 445.645 1378.21 452.153 1374.47 454.895C1369.44 458.632 1360.56 460.177 1352.22 458.825L1352.29 460.949L1340.11 459.337C1335.39 458.753 1329.16 459.95 1325.45 460.718L1324.57 460.949C1315.9 462.658 1304.56 459.747 1298.19 449.483C1297.96 449.102 1297.72 448.721 1297.51 448.315C1294.25 442.652 1289.19 437.395 1286.72 435.941C1283.14 436.917 1277.49 438.239 1270.77 437.559C1264.53 436.936 1257.33 434.561 1250.01 428.545C1248.8 427.546 1247.58 426.44 1246.37 425.243C1235.61 414.54 1221.42 412.348 1212.5 413.704L1207.19 414.641C1196.21 416.611 1182.5 419.121 1169.83 411.455C1166.68 409.548 1162.13 407.583 1157.67 405.714C1146.18 400.747 1134.29 395.624 1132.67 384.825C1132.4 382.898 1130.29 379.379 1128.57 376.579C1127.05 374.102 1125.39 371.394 1124.11 368.492C1122.88 365.721 1122 362.771 1121.91 359.691C1118.15 360.652 1114.26 361.045 1110.38 360.859C1109 360.791 1107.64 360.657 1106.28 360.459L1101.29 359.691C1092.87 358.267 1075.25 355.394 1069.64 357.427C1058.47 361.424 1023.31 363.355 1013.67 361.168C1013.67 361.168 1010.13 360.396 1006.78 359.691C1003.57 362.979 999.99 366.064 996.224 368.811C1003.28 369.192 1009.48 368.323 1013.75 369.414L1022.6 371.732C1025.43 370.901 1032.34 370.998 1036.27 371.35L1046.65 372.123L1058.48 373.252C1064.18 374.387 1070.24 376.83 1069.2 387.914C1068.8 391.332 1066.87 396.165 1063.97 399.004C1062.38 400.742 1056.19 409.639 1054.84 412.44L1054.39 413.313C1051.98 418.407 1048.41 423.085 1038.01 423.085C1036.69 423.067 1035.37 423.119 1034.06 423.239C1033.74 424.075 1032.89 425.624 1032.89 425.624C1030.55 430.906 1027.17 438.259 1020.7 442.512L1018.98 443.743C1013.79 447.417 1005.15 453.471 991.917 448.706L987.363 447.089C975.83 442.966 958.39 436.781 949.587 432.007L948.351 431.331C940.152 426.88 938.337 425.986 935.359 426.402L933.705 426.657C927.418 427.531 915.564 429.11 907.37 415.631L906.62 414.462C867.765 467.375 809.362 505.249 741.958 517.613L741.661 517.676C739.364 518.091 737.048 518.478 734.732 518.84L733.871 518.965L730.742 519.429C729.511 519.622 728.275 519.781 727.029 519.926L724.732 520.211L721.17 520.592L718.742 520.843C717.136 520.993 715.516 521.128 713.9 521.249L712.358 521.355C710.874 521.456 709.404 521.548 707.91 521.63L706.285 521.707C704.563 521.788 702.84 521.854 701.117 521.905L699.351 521.934C695.655 522.025 691.957 522.022 688.261 521.925L686.616 521.905C684.962 521.852 683.307 521.789 681.653 521.717L679.619 521.611C678.222 521.538 676.826 521.456 675.429 521.355L673.658 521.234C672.004 521.109 670.359 520.969 668.704 520.819L666.237 520.578L663.001 520.23L661.215 520.018C659.517 519.796 657.824 519.573 656.13 519.322L654.062 519.023L650.442 518.463L648.598 518.144C647.148 517.889 645.693 517.633 644.238 517.357L641.08 516.744L639.474 516.421C637.328 515.957 635.168 515.499 633.036 514.987L632.472 514.857L629.119 514.046L627.396 513.606C625.396 513.095 623.406 512.544 621.421 511.994L620.71 511.786C561.607 494.87 511.103 457.942 477.055 408.891L472.573 415.66C464.457 429.139 452.627 427.555 446.258 426.686L444.603 426.431C441.635 426.015 439.757 426.909 431.635 431.36L430.331 432.036C421.558 436.81 404.186 442.995 392.59 447.118L388.026 448.735C374.805 453.5 366.133 447.436 361.043 443.772L359.258 442.541C352.791 438.293 349.443 430.94 347.068 425.653C347.068 425.653 346.29 424.104 345.91 423.268C344.592 423.148 343.268 423.096 341.944 423.114C331.643 423.114 327.969 418.436 325.599 413.342L325.181 412.469C323.784 409.668 317.677 400.771 315.989 399.033C313.132 396.199 311.103 391.361 310.782 387.943C309.711 376.859 315.848 374.416 321.497 373.281L333.336 372.152L343.73 371.379C347.594 371.027 354.513 370.93 357.336 371.76L366.201 369.443C370.42 368.352 376.688 369.221 383.68 368.84C379.963 366.045 376.446 362.998 373.155 359.72C369.773 360.425 366.26 361.197 366.26 361.197C356.591 363.384 321.497 361.453 310.393 357.456C304.748 355.423 287.143 358.291 278.69 359.72L273.62 360.488C268.447 361.276 263.166 361.015 258.097 359.72C257.83 366.03 254.384 371.761 251.431 376.608C249.713 379.408 247.538 382.927 247.275 384.854C245.757 395.653 233.723 400.776 222.259 405.743C217.806 407.612 213.33 409.577 210.152 411.484C197.578 419.15 183.802 416.64 172.791 414.67L167.457 413.733C158.587 412.377 144.387 414.569 133.609 425.272C117.128 441.585 100.729 437.998 93.2598 435.97C90.7879 437.423 85.6931 442.681 82.4669 448.344C76.2384 459.564 64.3409 462.75 55.3776 460.978L54.4774 460.747C50.7986 459.979 44.6528 458.782 39.9473 459.366L27.6946 460.978L27.826 458.854C19.4418 460.206 10.5369 458.656 5.48597 454.924C1.77317 452.182 -3.42863 445.674 3.14054 432.75C4.66361 429.651 5.18427 427.498 5.18427 424.625C5.18427 413.347 11.7583 405 16.3713 402.393C21.2082 399.878 24.3906 397.362 25.685 393.563C26.955 389.754 29.4464 386.563 33.9718 384.047C38.4486 381.508 44.8183 377.119 49.9227 375.188C55.0175 373.286 62.0587 371.321 65.898 375.188C69.7665 378.925 78.6276 386.563 78.6276 386.563C86.7588 380.335 85.9802 373.156 90.1942 361.226C95.4641 346.434 108.072 350.426 116.257 351.204L117.196 351.334C117.196 351.334 121.609 351.527 121.741 351.595C121.969 351.464 123.205 350.885 123.205 350.885L125.254 349.818C125.254 349.818 138.47 342.118 138.602 342.055C138.66 341.896 138.66 341.664 138.66 341.273C138.66 340.341 138.339 338.439 136.553 335.605C130.675 326.577 126.519 308.695 125.765 293.647C123.643 293.898 121.595 294.105 119.58 294.265C87.5714 296.814 68.55 288.78 57.4213 278.434Z" fill="#F8EE3F"/>
<path d="M136.222 282.654C136.222 282.654 133.556 308.265 145.185 330.835C145.185 330.835 153.803 342.953 144.855 350.735L127.04 361.009C127.04 361.009 124.646 362.776 116.7 362.177C116.7 362.177 105.717 359.479 102.048 364.292C102.048 364.292 98.8606 373.547 94.8705 381.175C94.8705 381.175 86.7588 399.665 73.3333 405.589C73.3333 405.589 62.6329 408.022 59.3872 417.229C59.3872 417.229 55.9372 423.688 49.0274 423.973C49.0274 423.973 43.8742 425.595 40.4631 436.984C40.4631 436.984 38.6043 444.351 38.7016 450C38.7016 450 47.4897 448.856 53.2171 450.912C53.2171 450.912 67.2994 455.605 73.5961 444.096C73.5961 444.096 85.7612 423.428 94.7829 426.537C94.7829 426.537 112.904 432.552 125.702 419.43C125.702 419.43 143.283 400.375 168.114 404.295C168.114 404.295 196.084 409.915 204.809 403.513C204.809 403.513 222.449 394.364 229.066 392.095C229.066 392.095 237.164 389.734 238.001 380.938C238.001 380.938 242.925 368.564 246.506 364.442L233.164 364.292C233.164 364.292 221.081 384.453 200.551 390.531C200.551 390.531 189.325 394.982 166.791 391.366C166.791 391.366 134.436 384.096 106.019 414.544C106.019 414.544 102.135 420.111 96.593 417.885C96.593 417.885 112.296 391.318 146.772 385.022C146.772 385.022 158.056 382.642 167.467 384.158C167.467 384.158 213.904 385.51 235.436 340.153C235.436 340.153 233.105 301.482 243.387 292.324C243.387 292.324 247.358 291.117 246.565 298.595C246.565 298.595 239.499 339.105 252.769 346.95C252.769 346.95 260.472 352.956 274.725 350.735C274.725 350.735 296.33 345.613 313.891 348.597C313.891 348.597 340.898 354.955 364.104 352.015C364.104 352.015 358.08 342.861 359.262 331.917C359.262 331.917 362.586 324.081 366.396 329.121C366.396 329.121 375.325 358.387 399.729 367.169C399.729 367.169 421.524 375.043 421.168 402.47C421.168 402.47 417.83 406.231 388.931 416.418C388.931 416.418 378.133 419.802 374.654 411.797C374.654 411.797 360.717 382.203 348.586 383.116L325.808 384.95C325.808 384.95 318.037 386.925 323.76 393.104C323.76 393.104 331.56 403.392 334.747 409.533C334.747 409.533 335.677 414.781 343.005 413.666C343.005 413.666 353.17 408.669 358.902 427.43C358.902 427.43 364.148 436.81 373.029 439.808C373.029 439.808 381.335 442.56 389.13 438.22C389.13 438.22 426.75 424.519 433.299 419.662C433.299 419.662 441.435 415.143 447.888 417.316C447.888 417.316 459.172 419.985 463.819 411.151L475.478 393.254C475.478 393.254 478.038 388.846 477.683 383.309C477.683 383.309 478.739 377.824 474.077 372.248C474.077 372.248 469.673 367.628 468.977 364.282L460.666 344.903C460.666 344.903 457.299 339.728 453.601 337.599L442.506 338.405C442.506 338.405 450.141 357.765 455.732 365.653C455.732 365.653 463.299 377.134 462.914 384.433C462.914 384.433 462.413 389.551 460.379 391.685C460.379 391.685 457.819 395.75 456.788 397.724C456.788 397.724 453.425 404.966 450.696 406.574C450.696 406.574 445.976 409.345 444.827 409.456C444.827 409.456 442.774 410.021 444.297 406.371C444.297 406.371 450.516 393.389 450.107 386.447C450.107 386.447 451.314 379.215 446.156 374.981C446.156 374.981 434.068 356.051 432.336 350.393C432.336 350.393 428.545 342.823 426.526 341.524C426.526 341.524 422.302 336.015 429.12 333.437C429.12 333.437 446.102 329.633 449.143 327.567C449.143 327.567 457.309 325.114 462.613 308.241C462.613 308.241 469.917 288.563 469.809 276.416C469.809 276.416 484.125 303.799 461.294 331.646C461.294 331.646 479.361 336.933 486.836 331.646C486.836 331.646 509.341 328.383 513.687 327.195C513.687 327.195 519.346 325.838 516.115 329.821C516.115 329.821 509.327 339.4 508.752 345.676C508.752 345.676 508.315 350.673 504.188 353.598C504.188 353.598 491.395 362.486 490.271 370.998C490.271 370.998 487.536 379.19 493.186 377.23C493.186 377.23 500.845 373.711 503.551 377.255C503.551 377.255 504.344 377.626 501.39 380.914C501.39 380.914 493.707 387.547 493.132 396.45C493.132 396.45 494.553 406.723 497.269 410.026C497.269 410.026 500.728 414.786 506.198 413.275C506.198 413.275 507.648 412.111 510.266 412.893C510.266 412.893 512.971 412.884 520.037 410.46C520.037 410.46 530.747 407.539 534.328 406.284C534.328 406.284 547.963 401.447 554.688 401.785C554.688 401.785 559.063 401.307 564.639 402.412C564.639 402.412 581.69 404.334 593.052 391.873C593.052 391.873 601.699 385.071 604.633 391.675C604.633 391.675 625.377 419.29 658.953 412.015C658.953 412.015 632.238 401.114 625.309 386.268C625.309 386.268 624.384 373.663 610.39 356.157C610.39 356.157 606.112 350.349 610.239 348.838C610.239 348.838 612.628 347.066 617.84 352.256C617.84 352.256 631.134 364.91 635.936 376.492C635.936 376.492 652.447 401.244 676.242 392.926C676.242 392.926 657.561 385.776 648.783 372.441C648.783 372.441 643.357 354.395 625.119 340.969C625.119 340.969 624.404 320.687 615.898 309.289C615.898 309.289 611.562 290.243 610.395 285.792C610.395 285.792 605.806 269.063 605.835 264.443C605.835 264.443 607.353 242.593 593.154 225.584C593.154 225.584 583.641 207.388 568.824 194.71C568.824 194.71 557.564 180.908 549.189 172.454C549.189 172.454 538.173 159.641 514.154 142.922C514.154 142.922 503.278 135.077 495.312 126.643C495.312 126.643 452.944 96.3872 422.336 120.657C422.336 120.657 401.198 134.923 383.544 139.34C383.544 139.34 347.263 143.531 331.794 168.515C331.794 168.515 330.47 173.13 315.848 174.887C315.848 174.887 283.727 171.04 260.078 202.382C260.078 202.382 249.09 213.022 227.339 215.61C227.339 215.61 191.865 212.008 168.771 238.991C168.771 238.991 110.495 289.427 75.7469 256.719C75.7469 256.719 57.7425 239.807 78.3259 209.184C78.3259 209.184 91.3815 193.552 113.653 177.219C113.653 177.219 131.721 164.59 123.439 144.955C123.439 144.955 119.064 125.982 91.9849 125.48C91.9849 125.48 58.0053 118.967 44.2635 101.944C44.2635 101.944 28.9209 155.557 89.1383 154.664C89.1383 154.664 104.831 156.967 99.3521 169.326C99.3521 169.326 91.6589 179.899 81.3331 183.746C81.3331 183.746 63.1681 191.63 54.9591 217.874C54.9591 217.874 36.6141 263.816 81.372 281.548C98.5979 287.452 118.495 285.714 136.222 282.654ZM50.0493 390.912C52.4774 388.899 56.0345 387.765 59.1926 388.499C66.3165 390.019 62.0052 396.141 62.0052 396.141C59.1196 401.495 49.7038 410.528 49.7038 410.528C41.3293 416.751 34.6969 409.34 34.6969 409.34C28.4927 403.272 36.5654 400.336 36.5654 400.336C41.2612 398.444 50.0493 390.912 50.0493 390.912ZM32.0935 419.628C32.0935 419.628 34.6969 421.535 33.3052 425.301C33.3052 425.301 26.6582 443.352 26.9696 449.411C26.9696 449.411 12.2595 452.018 10.2206 444.815C10.2206 444.815 9.8265 442.034 12.2255 438.003C12.2255 438.003 14.7217 434.242 15.3689 427.362C15.3689 427.362 15.15 410.05 26.4538 414.636C28.697 415.882 30.4683 417.692 32.0935 419.628ZM550.571 382.995C547.983 382.932 547.326 381.991 547.637 379.162C549.374 371.297 555.729 367.903 555.729 367.903C567.651 360.835 569.101 367.913 569.101 367.913C571.286 380.537 561.228 382.126 561.228 382.126C559.218 382.811 550.571 382.995 550.571 382.995ZM586.536 326.616C586.755 320.692 587.261 307.526 581.193 302.824C578.955 301.057 570.099 291.435 570.099 291.435C568.751 289.104 567.714 288.959 567.714 288.959C565.89 288.785 563.534 292.995 563.534 292.995C557.228 305.069 550.936 303.597 550.936 303.597C550.883 301.395 552.367 298.938 552.367 298.938C555.411 293.072 558.426 287.192 561.413 281.297C562.333 279.202 563.179 276.411 563.179 276.411C569.267 267.05 575.004 274.176 575.004 274.176C577.563 279.134 591.213 295.288 591.213 295.288C594.239 298.861 594.531 302.699 594.531 302.699C597.694 324.825 586.536 326.616 586.536 326.616ZM460.822 193.05C458.958 189.723 459.727 186.329 461.6 183.095C465.824 176.674 469.771 183.679 469.771 183.679C484.354 203.849 473.586 234.047 473.586 234.047C472.087 206.254 460.822 193.05 460.822 193.05ZM1243.83 282.654C1243.83 282.654 1246.5 308.265 1234.87 330.835C1234.87 330.835 1226.25 342.953 1235.2 350.735L1253.02 361.009C1253.02 361.009 1255.41 362.776 1263.36 362.177C1263.36 362.177 1274.34 359.479 1278 364.292C1278 364.292 1281.19 373.547 1285.18 381.175C1285.18 381.175 1293.31 399.665 1306.73 405.589C1306.73 405.589 1317.43 408.022 1320.66 417.229C1320.66 417.229 1324.12 423.688 1331.02 423.973C1331.02 423.973 1336.19 425.595 1339.59 436.984C1339.59 436.984 1341.46 444.351 1341.36 450C1341.36 450 1332.57 448.856 1326.84 450.912C1326.84 450.912 1312.76 455.605 1306.46 444.096C1306.46 444.096 1294.3 423.428 1285.28 426.537C1285.28 426.537 1267.16 432.552 1254.36 419.43C1254.36 419.43 1236.78 400.375 1211.95 404.295C1211.95 404.295 1183.99 409.915 1175.26 403.513C1175.26 403.513 1157.62 394.364 1151 392.095C1151 392.095 1142.9 389.734 1142.07 380.938C1142.07 380.938 1137.14 368.564 1133.56 364.442L1146.9 364.292C1146.9 364.292 1158.97 384.453 1179.5 390.531C1179.5 390.531 1190.74 394.982 1213.26 391.366C1213.26 391.366 1245.62 384.096 1274.04 414.544C1274.04 414.544 1277.93 420.111 1283.46 417.885C1283.46 417.885 1267.77 391.318 1233.29 385.022C1233.29 385.022 1222.01 382.642 1212.59 384.158C1212.59 384.158 1166.15 385.51 1144.61 340.153C1144.61 340.153 1146.95 301.482 1136.67 292.324C1136.67 292.324 1132.71 291.117 1133.49 298.595C1133.49 298.595 1140.55 339.105 1127.29 346.95C1127.29 346.95 1119.58 352.956 1105.33 350.735C1105.33 350.735 1083.73 345.613 1066.17 348.597C1066.17 348.597 1039.15 354.955 1015.95 352.015C1015.95 352.015 1021.97 342.861 1020.79 331.917C1020.79 331.917 1017.46 324.081 1013.65 329.121C1013.65 329.121 1004.72 358.387 980.317 367.169C980.317 367.169 958.522 375.043 958.877 402.47C958.877 402.47 962.225 406.231 991.129 416.418C991.129 416.418 1001.93 419.802 1005.41 411.797C1005.41 411.797 1019.33 382.203 1031.47 383.116L1054.26 384.95C1054.26 384.95 1062.02 386.925 1056.3 393.104C1056.3 393.104 1048.5 403.392 1045.31 409.533C1045.31 409.533 1044.39 414.781 1037.05 413.666C1037.05 413.666 1026.89 408.669 1021.15 427.43C1021.15 427.43 1015.91 436.81 1007.03 439.808C1007.03 439.808 998.72 442.56 990.929 438.22C990.929 438.22 953.31 424.519 946.765 419.662C946.765 419.662 938.624 415.143 932.177 417.316C932.177 417.316 920.902 419.985 916.255 411.151L904.596 393.254C904.596 393.254 902.027 388.846 902.387 383.309C902.387 383.309 901.326 377.824 905.993 372.248C905.993 372.248 910.401 367.628 911.092 364.282L919.408 344.903C919.408 344.903 922.775 339.728 926.469 337.599L937.573 338.405C937.573 338.405 929.929 357.765 924.333 365.653C924.333 365.653 916.766 377.134 917.15 384.433C917.15 384.433 917.656 389.551 919.686 391.685C919.686 391.685 922.245 395.75 923.282 397.724C923.282 397.724 926.629 404.966 929.369 406.574C929.369 406.574 934.084 409.345 935.237 409.456C935.237 409.456 937.296 410.021 935.753 406.371C935.753 406.371 929.554 393.389 929.948 386.447C929.948 386.447 928.751 379.215 933.899 374.981C933.899 374.981 945.996 356.051 947.738 350.393C947.738 350.393 951.514 342.823 953.539 341.524C953.539 341.524 957.762 336.015 950.945 333.437C950.945 333.437 933.967 329.633 930.926 327.567C930.926 327.567 922.761 325.114 917.452 308.241C917.452 308.241 910.153 288.563 910.255 276.416C910.255 276.416 895.939 303.799 918.776 331.646C918.776 331.646 900.708 336.933 893.234 331.646C893.234 331.646 870.733 328.383 866.373 327.195C866.373 327.195 860.728 325.838 863.95 329.821C863.95 329.821 870.733 339.4 871.317 345.676C871.317 345.676 871.745 350.673 875.881 353.598C875.881 353.598 888.674 362.486 889.789 370.998C889.789 370.998 892.528 379.19 886.874 377.23C886.874 377.23 879.22 373.711 876.514 377.255C876.514 377.255 875.721 377.626 878.675 380.914C878.675 380.914 886.358 387.547 886.927 396.45C886.927 396.45 885.506 406.723 882.786 410.026C882.786 410.026 879.331 414.786 873.862 413.275C873.862 413.275 872.417 412.111 869.784 412.893C869.784 412.893 867.084 412.884 860.018 410.46C860.018 410.46 849.308 407.539 845.727 406.284C845.727 406.284 832.092 401.447 825.362 401.785C825.362 401.785 820.987 401.307 815.411 402.412C815.411 402.412 798.355 404.334 786.993 391.873C786.993 391.873 778.346 385.071 775.422 391.675C775.422 391.675 754.673 419.29 721.092 412.015C721.092 412.015 747.822 401.114 754.746 386.268C754.746 386.268 755.661 373.663 769.655 356.157C769.655 356.157 773.928 350.349 769.801 348.838C769.801 348.838 767.417 347.066 762.201 352.256C762.201 352.256 748.921 364.91 744.114 376.492C744.114 376.492 727.593 401.244 703.808 392.926C703.808 392.926 722.479 385.776 731.258 372.441C731.258 372.441 736.683 354.395 754.936 340.969C754.936 340.969 755.646 320.687 764.157 309.289C764.157 309.289 768.497 290.243 769.655 285.792C769.655 285.792 774.239 269.063 774.21 264.443C774.21 264.443 772.692 242.593 786.896 225.584C786.896 225.584 796.404 207.388 811.236 194.71C811.236 194.71 822.491 180.908 830.861 172.454C830.861 172.454 841.882 159.641 865.901 142.922C865.901 142.922 876.772 135.077 884.733 126.643C884.733 126.643 927.097 96.3872 957.714 120.657C957.714 120.657 978.852 134.923 996.516 139.34C996.516 139.34 1032.79 143.531 1048.25 168.515C1048.25 168.515 1049.57 173.13 1064.19 174.887C1064.19 174.887 1096.31 171.04 1119.97 202.382C1119.97 202.382 1130.95 213.022 1152.71 215.61C1152.71 215.61 1188.17 212.008 1211.26 238.991C1211.26 238.991 1269.54 289.427 1304.29 256.719C1304.29 256.719 1322.29 239.807 1301.71 209.184C1301.71 209.184 1288.66 193.552 1266.39 177.219C1266.39 177.219 1248.31 164.59 1256.6 144.955C1256.6 144.955 1260.98 125.982 1288.06 125.48C1288.06 125.48 1322.03 118.967 1335.77 101.944C1335.77 101.944 1351.12 155.557 1290.9 154.664C1290.9 154.664 1275.2 156.967 1280.68 169.326C1280.68 169.326 1288.38 179.899 1298.7 183.746C1298.7 183.746 1316.87 191.63 1325.08 217.874C1325.08 217.874 1343.43 263.816 1298.65 281.548C1281.45 287.452 1261.56 285.714 1243.83 282.654ZM1330.01 390.912C1327.58 388.899 1324.02 387.765 1320.87 388.499C1313.74 390.019 1318.05 396.141 1318.05 396.141C1320.94 401.495 1330.36 410.528 1330.36 410.528C1338.74 416.751 1345.37 409.34 1345.37 409.34C1351.56 403.272 1343.48 400.336 1343.48 400.336C1338.8 398.444 1330.01 390.912 1330.01 390.912ZM1347.96 419.628C1347.96 419.628 1345.37 421.535 1346.74 425.301C1346.74 425.301 1353.39 443.352 1353.09 449.411C1353.09 449.411 1367.8 452.018 1369.83 444.815C1369.83 444.815 1370.22 442.034 1367.83 438.003C1367.83 438.003 1365.33 434.242 1364.69 427.362C1364.69 427.362 1364.91 410.05 1353.61 414.636C1351.36 415.882 1349.59 417.692 1347.96 419.628ZM829.479 382.995C832.072 382.932 832.739 381.991 832.418 379.162C830.676 371.297 824.33 367.903 824.33 367.903C812.409 360.835 810.954 367.913 810.954 367.913C808.778 380.537 818.832 382.126 818.832 382.126C820.841 382.811 829.479 382.995 829.479 382.995ZM793.523 326.616C793.3 320.692 792.789 307.526 798.866 302.824C801.115 301.057 809.961 291.435 809.961 291.435C811.309 289.104 812.345 288.959 812.345 288.959C814.16 288.785 816.53 292.995 816.53 292.995C822.827 305.069 829.128 303.597 829.128 303.597C829.177 301.395 827.683 298.938 827.683 298.938C824.64 293.072 821.626 287.192 818.642 281.297C817.975 279.697 817.386 278.067 816.876 276.411C810.788 267.05 805.056 274.176 805.056 274.176C802.497 279.134 788.852 295.288 788.852 295.288C787.047 297.389 785.889 299.962 785.519 302.699C782.371 324.825 793.523 326.616 793.523 326.616ZM919.233 193.05C921.097 189.723 920.328 186.329 918.455 183.095C914.231 176.674 910.294 183.679 910.294 183.679C895.706 203.849 906.474 234.047 906.474 234.047C907.963 206.254 919.233 193.05 919.233 193.05Z" fill="#CC2729"/>
</svg>
