<svg width="114" height="123" viewBox="0 0 114 123" fill="none" xmlns="http://www.w3.org/2000/svg">
<path d="M114 66C114 97.4802 88.4802 123 57 123C25.5198 123 0 97.4802 0 66C0 34.5198 25.5198 9 57 9C88.4802 9 114 34.5198 114 66ZM9.82397 66C9.82397 92.0546 30.9454 113.176 57 113.176C83.0546 113.176 104.176 92.0546 104.176 66C104.176 39.9454 83.0546 18.824 57 18.824C30.9454 18.824 9.82397 39.9454 9.82397 66Z" fill="#ED00FE"/>
<rect x="48" width="19" height="16" rx="5" fill="#ED00FE"/>
<rect x="95.6062" y="17" width="12.9778" height="10.7456" rx="5" transform="rotate(45 95.6062 17)" fill="#ED00FE"/>
<circle cx="57" cy="66" r="6" fill="#ED00FE"/>
<path d="M78.1789 40.6996C79.5367 39.4744 81.4891 41.2836 80.3707 42.7306L61.2242 67.5015C60.6853 68.1987 59.6642 68.2834 59.0178 67.6844L54.9208 63.8879C54.2744 63.2889 54.2812 62.2644 54.9355 61.674L78.1789 40.6996Z" fill="#ED00FE"/>
</svg>
